<?xml version="1.0" encoding="UTF-8" standalone="no"?>
<!DOCTYPE svg PUBLIC "-//W3C//DTD SVG 1.1//EN"
 "http://www.w3.org/Graphics/SVG/1.1/DTD/svg11.dtd">
<!-- Generated by graphviz version 2.43.0 (0)
 -->
<!-- Title: ktos_hal_ContextSwitch Pages: 1 -->
<svg width="529pt" height="104pt"
 viewBox="0.00 0.00 529.00 104.00" xmlns="http://www.w3.org/2000/svg" xmlns:xlink="http://www.w3.org/1999/xlink">
<g id="graph0" class="graph" transform="scale(1 1) rotate(0) translate(4 100)">
<title>ktos_hal_ContextSwitch</title>
<polygon fill="white" stroke="transparent" points="-4,4 -4,-100 525,-100 525,4 -4,4"/>
<!-- Node1 -->
<g id="node1" class="node">
<title>Node1</title>
<g id="a_node1"><a xlink:title="Perform a cooperative context switch between two execution contexts.">
<polygon fill="#bfbfbf" stroke="black" points="387,-38.5 387,-57.5 521,-57.5 521,-38.5 387,-38.5"/>
<text text-anchor="middle" x="454" y="-45.5" font-family="Helvetica,sans-Serif" font-size="10.00">ktos_hal_ContextSwitch</text>
</a>
</g>
</g>
<!-- Node2 -->
<g id="node2" class="node">
<title>Node2</title>
<g id="a_node2"><a xlink:href="ktos_8c.html#a43c4623c2553d09a59385aabe971d75d" target="_top" xlink:title="Round&#45;robin cooperative scheduler — runs on the OS stack.">
<polygon fill="white" stroke="black" points="232,-76.5 232,-95.5 312,-95.5 312,-76.5 232,-76.5"/>
<text text-anchor="middle" x="272" y="-83.5" font-family="Helvetica,sans-Serif" font-size="10.00">__attribute__</text>
</a>
</g>
</g>
<!-- Node1&#45;&gt;Node2 -->
<g id="edge1" class="edge">
<title>Node1&#45;&gt;Node2</title>
<path fill="none" stroke="midnightblue" d="M397.66,-59.68C370.05,-65.51 337.3,-72.43 312.29,-77.7"/>
<polygon fill="midnightblue" stroke="midnightblue" points="398.52,-63.08 407.58,-57.59 397.07,-56.23 398.52,-63.08"/>
</g>
<!-- Node3 -->
<g id="node3" class="node">
<title>Node3</title>
<g id="a_node3"><a xlink:href="ktos_8c.html#a0472bc90096e9ce7acb6b8aebc9b127b" target="_top" xlink:title="Default exit handler called when a task function returns.">
<polygon fill="white" stroke="black" points="193,-38.5 193,-57.5 351,-57.5 351,-38.5 193,-38.5"/>
<text text-anchor="middle" x="272" y="-45.5" font-family="Helvetica,sans-Serif" font-size="10.00">ktos_DefaultTaskExitHandler</text>
</a>
</g>
</g>
<!-- Node1&#45;&gt;Node3 -->
<g id="edge2" class="edge">
<title>Node1&#45;&gt;Node3</title>
<path fill="none" stroke="midnightblue" d="M376.78,-48C368.32,-48 359.69,-48 351.21,-48"/>
<polygon fill="midnightblue" stroke="midnightblue" points="377,-51.5 387,-48 377,-44.5 377,-51.5"/>
</g>
<!-- Node6 -->
<g id="node6" class="node">
<title>Node6</title>
<g id="a_node6"><a xlink:href="ktos_8c.html#a58c939684b243c872c31ec084dba395a" target="_top" xlink:title=" ">
<polygon fill="white" stroke="black" points="237,-0.5 237,-19.5 307,-19.5 307,-0.5 237,-0.5"/>
<text text-anchor="middle" x="272" y="-7.5" font-family="Helvetica,sans-Serif" font-size="10.00">ktos_Sleep</text>
</a>
</g>
</g>
<!-- Node1&#45;&gt;Node6 -->
<g id="edge5" class="edge">
<title>Node1&#45;&gt;Node6</title>
<path fill="none" stroke="midnightblue" d="M397.78,-36.34C368.17,-30.09 332.61,-22.58 307.04,-17.19"/>
<polygon fill="midnightblue" stroke="midnightblue" points="397.07,-39.77 407.58,-38.41 398.52,-32.92 397.07,-39.77"/>
</g>
<!-- Node4 -->
<g id="node4" class="node">
<title>Node4</title>
<g id="a_node4"><a xlink:href="ktos_8c.html#a9f7bbd66bfb5333402db8b6c413cb114" target="_top" xlink:title=" ">
<polygon fill="white" stroke="black" points="77,-38.5 77,-57.5 157,-57.5 157,-38.5 77,-38.5"/>
<text text-anchor="middle" x="117" y="-45.5" font-family="Helvetica,sans-Serif" font-size="10.00">ktos_InitTask</text>
</a>
</g>
</g>
<!-- Node3&#45;&gt;Node4 -->
<g id="edge3" class="edge">
<title>Node3&#45;&gt;Node4</title>
<path fill="none" stroke="midnightblue" d="M182.62,-48C173.74,-48 165.08,-48 157.13,-48"/>
<polygon fill="midnightblue" stroke="midnightblue" points="182.71,-51.5 192.71,-48 182.71,-44.5 182.71,-51.5"/>
</g>
<!-- Node5 -->
<g id="node5" class="node">
<title>Node5</title>
<g id="a_node5"><a xlink:href="ktos__multi_8c.html#ae66f6b31b5ad750f1fe042a706a4e3d4" target="_top" xlink:title=" ">
<polygon fill="white" stroke="black" points="0,-38.5 0,-57.5 41,-57.5 41,-38.5 0,-38.5"/>
<text text-anchor="middle" x="20.5" y="-45.5" font-family="Helvetica,sans-Serif" font-size="10.00">main</text>
</a>
</g>
</g>
<!-- Node4&#45;&gt;Node5 -->
<g id="edge4" class="edge">
<title>Node4&#45;&gt;Node5</title>
<path fill="none" stroke="midnightblue" d="M66.58,-48C57.56,-48 48.64,-48 41.15,-48"/>
<polygon fill="midnightblue" stroke="midnightblue" points="66.74,-51.5 76.74,-48 66.74,-44.5 66.74,-51.5"/>
</g>
</g>
</svg>
