<?xml version="1.0" encoding="UTF-8" standalone="no"?>
<!DOCTYPE svg PUBLIC "-//W3C//DTD SVG 1.1//EN"
 "http://www.w3.org/Graphics/SVG/1.1/DTD/svg11.dtd">
<!-- Generated by graphviz version 2.43.0 (0)
 -->
<!-- Title: core/ktos.h Pages: 1 -->
<svg width="632pt" height="151pt"
 viewBox="0.00 0.00 631.50 151.00" xmlns="http://www.w3.org/2000/svg" xmlns:xlink="http://www.w3.org/1999/xlink">
<g id="graph0" class="graph" transform="scale(1 1) rotate(0) translate(4 147)">
<title>core/ktos.h</title>
<polygon fill="white" stroke="transparent" points="-4,4 -4,-147 627.5,-147 627.5,4 -4,4"/>
<!-- Node1 -->
<g id="node1" class="node">
<title>Node1</title>
<g id="a_node1"><a xlink:title="KTOS public API — include this in your application code.">
<polygon fill="#bfbfbf" stroke="black" points="186.5,-123.5 186.5,-142.5 257.5,-142.5 257.5,-123.5 186.5,-123.5"/>
<text text-anchor="middle" x="222" y="-130.5" font-family="Helvetica,sans-Serif" font-size="10.00">core/ktos.h</text>
</a>
</g>
</g>
<!-- Node2 -->
<g id="node2" class="node">
<title>Node2</title>
<g id="a_node2"><a xlink:href="ktos_8c.html" target="_top" xlink:title="KTOS cooperative scheduler implementation.">
<polygon fill="white" stroke="black" points="0,-6 0,-25 70,-25 70,-6 0,-6"/>
<text text-anchor="middle" x="35" y="-13" font-family="Helvetica,sans-Serif" font-size="10.00">core/ktos.c</text>
</a>
</g>
</g>
<!-- Node1&#45;&gt;Node2 -->
<g id="edge1" class="edge">
<title>Node1&#45;&gt;Node2</title>
<path fill="none" stroke="midnightblue" d="M199.35,-118.01C160.21,-93.83 81.04,-44.93 48.96,-25.12"/>
<polygon fill="midnightblue" stroke="midnightblue" points="197.6,-121.04 207.94,-123.32 201.28,-115.09 197.6,-121.04"/>
</g>
<!-- Node3 -->
<g id="node3" class="node">
<title>Node3</title>
<g id="a_node3"><a xlink:href="ktos__hal_8h.html" target="_top" xlink:title="KTOS Hardware Abstraction Layer (HAL) interface.">
<polygon fill="white" stroke="black" points="176.5,-67.5 176.5,-86.5 267.5,-86.5 267.5,-67.5 176.5,-67.5"/>
<text text-anchor="middle" x="222" y="-74.5" font-family="Helvetica,sans-Serif" font-size="10.00">core/ktos_hal.h</text>
</a>
</g>
</g>
<!-- Node1&#45;&gt;Node3 -->
<g id="edge2" class="edge">
<title>Node1&#45;&gt;Node3</title>
<path fill="none" stroke="midnightblue" d="M222,-112.8C222,-103.91 222,-93.78 222,-86.75"/>
<polygon fill="midnightblue" stroke="midnightblue" points="218.5,-113.08 222,-123.08 225.5,-113.08 218.5,-113.08"/>
</g>
<!-- Node8 -->
<g id="node8" class="node">
<title>Node8</title>
<g id="a_node8"><a xlink:href="ktos__multi_8c.html" target="_top" xlink:title=" ">
<polygon fill="white" stroke="black" points="285.5,-67.5 285.5,-86.5 386.5,-86.5 386.5,-67.5 285.5,-67.5"/>
<text text-anchor="middle" x="336" y="-74.5" font-family="Helvetica,sans-Serif" font-size="10.00">core/ktos_multi.c</text>
</a>
</g>
</g>
<!-- Node1&#45;&gt;Node8 -->
<g id="edge8" class="edge">
<title>Node1&#45;&gt;Node8</title>
<path fill="none" stroke="midnightblue" d="M249.24,-119.1C270.54,-109.01 299.54,-95.27 318.02,-86.52"/>
<polygon fill="midnightblue" stroke="midnightblue" points="247.6,-116 240.06,-123.44 250.6,-122.33 247.6,-116"/>
</g>
<!-- Node3&#45;&gt;Node2 -->
<g id="edge3" class="edge">
<title>Node3&#45;&gt;Node2</title>
<path fill="none" stroke="midnightblue" d="M184.87,-64.47C155.98,-55.45 114.9,-42.56 79,-31 73.18,-29.13 66.94,-27.09 61.04,-25.15"/>
<polygon fill="midnightblue" stroke="midnightblue" points="183.96,-67.85 194.55,-67.48 186.05,-61.17 183.96,-67.85"/>
</g>
<!-- Node4 -->
<g id="node4" class="node">
<title>Node4</title>
<g id="a_node4"><a xlink:href="atmega328p_2ktos__bsp_8c.html" target="_top" xlink:title="KTOS Board Support Package — ATmega328P (AVR 8&#45;bit)">
<polygon fill="white" stroke="black" points="88,-0.5 88,-30.5 210,-30.5 210,-0.5 88,-0.5"/>
<text text-anchor="start" x="96" y="-18.5" font-family="Helvetica,sans-Serif" font-size="10.00">bsp/atmega328p/ktos</text>
<text text-anchor="middle" x="149" y="-7.5" font-family="Helvetica,sans-Serif" font-size="10.00">_bsp.c</text>
</a>
</g>
</g>
<!-- Node3&#45;&gt;Node4 -->
<g id="edge4" class="edge">
<title>Node3&#45;&gt;Node4</title>
<path fill="none" stroke="midnightblue" d="M203.5,-60.92C192.04,-51.58 177.42,-39.66 166.2,-30.52"/>
<polygon fill="midnightblue" stroke="midnightblue" points="201.58,-63.87 211.54,-67.48 206,-58.44 201.58,-63.87"/>
</g>
<!-- Node5 -->
<g id="node5" class="node">
<title>Node5</title>
<g id="a_node5"><a xlink:href="esp8266_2ktos__bsp_8c.html" target="_top" xlink:title="KTOS Board Support Package — ESP8266 (Xtensa LX106) — partial.">
<polygon fill="white" stroke="black" points="228.5,-6 228.5,-25 361.5,-25 361.5,-6 228.5,-6"/>
<text text-anchor="middle" x="295" y="-13" font-family="Helvetica,sans-Serif" font-size="10.00">bsp/esp8266/ktos_bsp.c</text>
</a>
</g>
</g>
<!-- Node3&#45;&gt;Node5 -->
<g id="edge5" class="edge">
<title>Node3&#45;&gt;Node5</title>
<path fill="none" stroke="midnightblue" d="M240.44,-60.97C254.4,-49.59 273.08,-34.37 284.56,-25.01"/>
<polygon fill="midnightblue" stroke="midnightblue" points="238,-58.44 232.46,-67.48 242.42,-63.87 238,-58.44"/>
</g>
<!-- Node6 -->
<g id="node6" class="node">
<title>Node6</title>
<g id="a_node6"><a xlink:href="stm32f030_2ktos__bsp_8c.html" target="_top" xlink:title="KTOS Board Support Package — STM32F030 (ARM Cortex&#45;M0)">
<polygon fill="white" stroke="black" points="379.5,-0.5 379.5,-30.5 492.5,-30.5 492.5,-0.5 379.5,-0.5"/>
<text text-anchor="start" x="387.5" y="-18.5" font-family="Helvetica,sans-Serif" font-size="10.00">bsp/stm32f030/ktos</text>
<text text-anchor="middle" x="436" y="-7.5" font-family="Helvetica,sans-Serif" font-size="10.00">_bsp.c</text>
</a>
</g>
</g>
<!-- Node3&#45;&gt;Node6 -->
<g id="edge6" class="edge">
<title>Node3&#45;&gt;Node6</title>
<path fill="none" stroke="midnightblue" d="M262.52,-64.73C297.45,-55.02 348.02,-40.96 385.56,-30.52"/>
<polygon fill="midnightblue" stroke="midnightblue" points="261.36,-61.42 252.66,-67.48 263.23,-68.17 261.36,-61.42"/>
</g>
<!-- Node7 -->
<g id="node7" class="node">
<title>Node7</title>
<g id="a_node7"><a xlink:href="stm32f103_2ktos__bsp_8c.html" target="_top" xlink:title="KTOS Board Support Package — STM32F103 (ARM Cortex&#45;M3)">
<polygon fill="white" stroke="black" points="510.5,-0.5 510.5,-30.5 623.5,-30.5 623.5,-0.5 510.5,-0.5"/>
<text text-anchor="start" x="518.5" y="-18.5" font-family="Helvetica,sans-Serif" font-size="10.00">bsp/stm32f103/ktos</text>
<text text-anchor="middle" x="567" y="-7.5" font-family="Helvetica,sans-Serif" font-size="10.00">_bsp.c</text>
</a>
</g>
</g>
<!-- Node3&#45;&gt;Node7 -->
<g id="edge7" class="edge">
<title>Node3&#45;&gt;Node7</title>
<path fill="none" stroke="midnightblue" d="M277.63,-66.91C378.64,-50.76 405.64,-49.44 502,-31 504.73,-30.48 507.51,-29.93 510.32,-29.36"/>
<polygon fill="midnightblue" stroke="midnightblue" points="276.93,-63.48 267.62,-68.52 278.05,-70.39 276.93,-63.48"/>
</g>
</g>
</svg>
