<?xml version="1.0" encoding="UTF-8" standalone="no"?>
<!DOCTYPE svg PUBLIC "-//W3C//DTD SVG 1.1//EN"
 "http://www.w3.org/Graphics/SVG/1.1/DTD/svg11.dtd">
<!-- Generated by graphviz version 2.43.0 (0)
 -->
<!-- Title: ktos_SendMsg Pages: 1 -->
<svg width="278pt" height="66pt"
 viewBox="0.00 0.00 278.00 66.00" xmlns="http://www.w3.org/2000/svg" xmlns:xlink="http://www.w3.org/1999/xlink">
<g id="graph0" class="graph" transform="scale(1 1) rotate(0) translate(4 62)">
<title>ktos_SendMsg</title>
<polygon fill="white" stroke="transparent" points="-4,4 -4,-62 274,-62 274,4 -4,4"/>
<!-- Node1 -->
<g id="node1" class="node">
<title>Node1</title>
<g id="a_node1"><a xlink:title=" ">
<polygon fill="#bfbfbf" stroke="black" points="0,-19.5 0,-38.5 87,-38.5 87,-19.5 0,-19.5"/>
<text text-anchor="middle" x="43.5" y="-26.5" font-family="Helvetica,sans-Serif" font-size="10.00">ktos_SendMsg</text>
</a>
</g>
</g>
<!-- Node2 -->
<g id="node2" class="node">
<title>Node2</title>
<g id="a_node2"><a xlink:href="group__ktos__hal.html#ga13869e4884f47a98d8c9b2d9902d5eda" target="_top" xlink:title="Disable all maskable interrupts.">
<polygon fill="white" stroke="black" points="123,-38.5 123,-57.5 270,-57.5 270,-38.5 123,-38.5"/>
<text text-anchor="middle" x="196.5" y="-45.5" font-family="Helvetica,sans-Serif" font-size="10.00">ktos_hal_DisableInterrupts</text>
</a>
</g>
</g>
<!-- Node1&#45;&gt;Node2 -->
<g id="edge1" class="edge">
<title>Node1&#45;&gt;Node2</title>
<path fill="none" stroke="midnightblue" d="M87.37,-34.39C95.41,-35.41 104.07,-36.5 112.86,-37.6"/>
<polygon fill="midnightblue" stroke="midnightblue" points="112.45,-41.08 122.81,-38.85 113.32,-34.13 112.45,-41.08"/>
</g>
<!-- Node3 -->
<g id="node3" class="node">
<title>Node3</title>
<g id="a_node3"><a xlink:href="group__ktos__hal.html#ga6741995a98c2dc4867a11717fa64efd8" target="_top" xlink:title="Re&#45;enable maskable interrupts.">
<polygon fill="white" stroke="black" points="125,-0.5 125,-19.5 268,-19.5 268,-0.5 125,-0.5"/>
<text text-anchor="middle" x="196.5" y="-7.5" font-family="Helvetica,sans-Serif" font-size="10.00">ktos_hal_EnableInterrupts</text>
</a>
</g>
</g>
<!-- Node1&#45;&gt;Node3 -->
<g id="edge2" class="edge">
<title>Node1&#45;&gt;Node3</title>
<path fill="none" stroke="midnightblue" d="M87.37,-23.61C95.95,-22.53 105.22,-21.36 114.61,-20.18"/>
<polygon fill="midnightblue" stroke="midnightblue" points="115.33,-23.62 124.81,-18.89 114.46,-16.67 115.33,-23.62"/>
</g>
</g>
</svg>
