<?xml version="1.0" encoding="UTF-8" standalone="no"?>
<!DOCTYPE svg PUBLIC "-//W3C//DTD SVG 1.1//EN"
 "http://www.w3.org/Graphics/SVG/1.1/DTD/svg11.dtd">
<!-- Generated by graphviz version 2.43.0 (0)
 -->
<!-- Title: bsp/stm32f103/ktos_bsp.c Pages: 1 -->
<svg width="216pt" height="263pt"
 viewBox="0.00 0.00 215.50 263.00" xmlns="http://www.w3.org/2000/svg" xmlns:xlink="http://www.w3.org/1999/xlink">
<g id="graph0" class="graph" transform="scale(1 1) rotate(0) translate(4 259)">
<title>bsp/stm32f103/ktos_bsp.c</title>
<polygon fill="white" stroke="transparent" points="-4,4 -4,-259 211.5,-259 211.5,4 -4,4"/>
<!-- Node1 -->
<g id="node1" class="node">
<title>Node1</title>
<g id="a_node1"><a xlink:title="KTOS Board Support Package — STM32F103 (ARM Cortex&#45;M3)">
<polygon fill="#bfbfbf" stroke="black" points="82.5,-224.5 82.5,-254.5 195.5,-254.5 195.5,-224.5 82.5,-224.5"/>
<text text-anchor="start" x="90.5" y="-242.5" font-family="Helvetica,sans-Serif" font-size="10.00">bsp/stm32f103/ktos</text>
<text text-anchor="middle" x="139" y="-231.5" font-family="Helvetica,sans-Serif" font-size="10.00">_bsp.c</text>
</a>
</g>
</g>
<!-- Node2 -->
<g id="node2" class="node">
<title>Node2</title>
<g id="a_node2"><a xlink:href="ktos__hal_8h.html" target="_top" xlink:title="KTOS Hardware Abstraction Layer (HAL) interface.">
<polygon fill="white" stroke="black" points="43.5,-168.5 43.5,-187.5 152.5,-187.5 152.5,-168.5 43.5,-168.5"/>
<text text-anchor="middle" x="98" y="-175.5" font-family="Helvetica,sans-Serif" font-size="10.00">../../core/ktos_hal.h</text>
</a>
</g>
</g>
<!-- Node1&#45;&gt;Node2 -->
<g id="edge1" class="edge">
<title>Node1&#45;&gt;Node2</title>
<path fill="none" stroke="midnightblue" d="M129.28,-224.4C123.45,-215.93 115.98,-205.1 109.81,-196.14"/>
<polygon fill="midnightblue" stroke="midnightblue" points="112.52,-193.91 103.97,-187.66 106.76,-197.88 112.52,-193.91"/>
</g>
<!-- Node6 -->
<g id="node6" class="node">
<title>Node6</title>
<g id="a_node6"><a xlink:title=" ">
<polygon fill="white" stroke="#bfbfbf" points="154.5,-0.5 154.5,-19.5 207.5,-19.5 207.5,-0.5 154.5,-0.5"/>
<text text-anchor="middle" x="181" y="-7.5" font-family="Helvetica,sans-Serif" font-size="10.00">stdint.h</text>
</a>
</g>
</g>
<!-- Node1&#45;&gt;Node6 -->
<g id="edge8" class="edge">
<title>Node1&#45;&gt;Node6</title>
<path fill="none" stroke="midnightblue" d="M146.54,-224.33C151.46,-214.43 157.59,-200.75 161,-188 176.03,-131.86 179.77,-62.77 180.7,-29.98"/>
<polygon fill="midnightblue" stroke="midnightblue" points="184.21,-29.72 180.93,-19.64 177.21,-29.56 184.21,-29.72"/>
</g>
<!-- Node3 -->
<g id="node3" class="node">
<title>Node3</title>
<g id="a_node3"><a xlink:href="ktos_8h.html" target="_top" xlink:title="KTOS public API — include this in your application code.">
<polygon fill="white" stroke="black" points="74.5,-112.5 74.5,-131.5 121.5,-131.5 121.5,-112.5 74.5,-112.5"/>
<text text-anchor="middle" x="98" y="-119.5" font-family="Helvetica,sans-Serif" font-size="10.00">ktos.h</text>
</a>
</g>
</g>
<!-- Node2&#45;&gt;Node3 -->
<g id="edge2" class="edge">
<title>Node2&#45;&gt;Node3</title>
<path fill="none" stroke="midnightblue" d="M98,-168.08C98,-161.01 98,-150.86 98,-141.99"/>
<polygon fill="midnightblue" stroke="midnightblue" points="101.5,-141.75 98,-131.75 94.5,-141.75 101.5,-141.75"/>
</g>
<!-- Node4 -->
<g id="node4" class="node">
<title>Node4</title>
<g id="a_node4"><a xlink:title=" ">
<polygon fill="white" stroke="#bfbfbf" points="0,-0.5 0,-19.5 62,-19.5 62,-0.5 0,-0.5"/>
<text text-anchor="middle" x="31" y="-7.5" font-family="Helvetica,sans-Serif" font-size="10.00">stdbool.h</text>
</a>
</g>
</g>
<!-- Node3&#45;&gt;Node4 -->
<g id="edge3" class="edge">
<title>Node3&#45;&gt;Node4</title>
<path fill="none" stroke="midnightblue" d="M87.53,-112.31C77.94,-103.88 63.93,-90.3 55,-76 46.04,-61.65 39.68,-43.45 35.77,-29.96"/>
<polygon fill="midnightblue" stroke="midnightblue" points="39.05,-28.67 33.06,-19.93 32.29,-30.5 39.05,-28.67"/>
</g>
<!-- Node5 -->
<g id="node5" class="node">
<title>Node5</title>
<g id="a_node5"><a xlink:href="ktos__multi_8h.html" target="_top" xlink:title="Portable primitive types, constants, and utility prototypes used throughout the KTOS kernel and all B...">
<polygon fill="white" stroke="black" points="64.5,-56.5 64.5,-75.5 141.5,-75.5 141.5,-56.5 64.5,-56.5"/>
<text text-anchor="middle" x="103" y="-63.5" font-family="Helvetica,sans-Serif" font-size="10.00">ktos_multi.h</text>
</a>
</g>
</g>
<!-- Node3&#45;&gt;Node5 -->
<g id="edge4" class="edge">
<title>Node3&#45;&gt;Node5</title>
<path fill="none" stroke="midnightblue" d="M98.83,-112.08C99.48,-105.01 100.42,-94.86 101.24,-85.99"/>
<polygon fill="midnightblue" stroke="midnightblue" points="104.75,-86.03 102.19,-75.75 97.78,-85.39 104.75,-86.03"/>
</g>
<!-- Node5&#45;&gt;Node4 -->
<g id="edge7" class="edge">
<title>Node5&#45;&gt;Node4</title>
<path fill="none" stroke="midnightblue" d="M91.43,-56.32C80.58,-48.18 64.12,-35.84 51.12,-26.09"/>
<polygon fill="midnightblue" stroke="midnightblue" points="52.88,-23.03 42.78,-19.83 48.68,-28.63 52.88,-23.03"/>
</g>
<!-- Node5&#45;&gt;Node6 -->
<g id="edge5" class="edge">
<title>Node5&#45;&gt;Node6</title>
<path fill="none" stroke="midnightblue" d="M115.53,-56.32C127.59,-47.98 146.03,-35.21 160.27,-25.35"/>
<polygon fill="midnightblue" stroke="midnightblue" points="162.27,-28.22 168.5,-19.65 158.28,-22.47 162.27,-28.22"/>
</g>
<!-- Node7 -->
<g id="node7" class="node">
<title>Node7</title>
<g id="a_node7"><a xlink:title=" ">
<polygon fill="white" stroke="#bfbfbf" points="80,-0.5 80,-19.5 136,-19.5 136,-0.5 80,-0.5"/>
<text text-anchor="middle" x="108" y="-7.5" font-family="Helvetica,sans-Serif" font-size="10.00">stddef.h</text>
</a>
</g>
</g>
<!-- Node5&#45;&gt;Node7 -->
<g id="edge6" class="edge">
<title>Node5&#45;&gt;Node7</title>
<path fill="none" stroke="midnightblue" d="M103.83,-56.08C104.48,-49.01 105.42,-38.86 106.24,-29.99"/>
<polygon fill="midnightblue" stroke="midnightblue" points="109.75,-30.03 107.19,-19.75 102.78,-29.39 109.75,-30.03"/>
</g>
</g>
</svg>
