<?xml version="1.0" encoding="UTF-8" standalone="no"?>
<!DOCTYPE svg PUBLIC "-//W3C//DTD SVG 1.1//EN"
 "http://www.w3.org/Graphics/SVG/1.1/DTD/svg11.dtd">
<!-- Generated by graphviz version 2.43.0 (0)
 -->
<!-- Title: bsp/atmega328p/ktos_bsp.c Pages: 1 -->
<svg width="306pt" height="263pt"
 viewBox="0.00 0.00 306.00 263.00" xmlns="http://www.w3.org/2000/svg" xmlns:xlink="http://www.w3.org/1999/xlink">
<g id="graph0" class="graph" transform="scale(1 1) rotate(0) translate(4 259)">
<title>bsp/atmega328p/ktos_bsp.c</title>
<polygon fill="white" stroke="transparent" points="-4,4 -4,-259 302,-259 302,4 -4,4"/>
<!-- Node1 -->
<g id="node1" class="node">
<title>Node1</title>
<g id="a_node1"><a xlink:title="KTOS Board Support Package — ATmega328P (AVR 8&#45;bit)">
<polygon fill="#bfbfbf" stroke="black" points="106,-224.5 106,-254.5 228,-254.5 228,-224.5 106,-224.5"/>
<text text-anchor="start" x="114" y="-242.5" font-family="Helvetica,sans-Serif" font-size="10.00">bsp/atmega328p/ktos</text>
<text text-anchor="middle" x="167" y="-231.5" font-family="Helvetica,sans-Serif" font-size="10.00">_bsp.c</text>
</a>
</g>
</g>
<!-- Node2 -->
<g id="node2" class="node">
<title>Node2</title>
<g id="a_node2"><a xlink:href="ktos__hal_8h.html" target="_top" xlink:title="KTOS Hardware Abstraction Layer (HAL) interface.">
<polygon fill="white" stroke="black" points="13.5,-168.5 13.5,-187.5 122.5,-187.5 122.5,-168.5 13.5,-168.5"/>
<text text-anchor="middle" x="68" y="-175.5" font-family="Helvetica,sans-Serif" font-size="10.00">../../core/ktos_hal.h</text>
</a>
</g>
</g>
<!-- Node1&#45;&gt;Node2 -->
<g id="edge1" class="edge">
<title>Node1&#45;&gt;Node2</title>
<path fill="none" stroke="midnightblue" d="M143.54,-224.4C127.67,-214.86 106.81,-202.32 91.03,-192.84"/>
<polygon fill="midnightblue" stroke="midnightblue" points="92.78,-189.81 82.41,-187.66 89.17,-195.81 92.78,-189.81"/>
</g>
<!-- Node8 -->
<g id="node8" class="node">
<title>Node8</title>
<g id="a_node8"><a xlink:title=" ">
<polygon fill="white" stroke="#bfbfbf" points="140.5,-168.5 140.5,-187.5 193.5,-187.5 193.5,-168.5 140.5,-168.5"/>
<text text-anchor="middle" x="167" y="-175.5" font-family="Helvetica,sans-Serif" font-size="10.00">avr/io.h</text>
</a>
</g>
</g>
<!-- Node1&#45;&gt;Node8 -->
<g id="edge8" class="edge">
<title>Node1&#45;&gt;Node8</title>
<path fill="none" stroke="midnightblue" d="M167,-224.4C167,-216.47 167,-206.46 167,-197.86"/>
<polygon fill="midnightblue" stroke="midnightblue" points="170.5,-197.66 167,-187.66 163.5,-197.66 170.5,-197.66"/>
</g>
<!-- Node9 -->
<g id="node9" class="node">
<title>Node9</title>
<g id="a_node9"><a xlink:title=" ">
<polygon fill="white" stroke="#bfbfbf" points="212,-168.5 212,-187.5 298,-187.5 298,-168.5 212,-168.5"/>
<text text-anchor="middle" x="255" y="-175.5" font-family="Helvetica,sans-Serif" font-size="10.00">avr/interrupt.h</text>
</a>
</g>
</g>
<!-- Node1&#45;&gt;Node9 -->
<g id="edge9" class="edge">
<title>Node1&#45;&gt;Node9</title>
<path fill="none" stroke="midnightblue" d="M187.85,-224.4C201.7,-215.04 219.81,-202.79 233.74,-193.38"/>
<polygon fill="midnightblue" stroke="midnightblue" points="235.87,-196.16 242.2,-187.66 231.95,-190.36 235.87,-196.16"/>
</g>
<!-- Node3 -->
<g id="node3" class="node">
<title>Node3</title>
<g id="a_node3"><a xlink:href="ktos_8h.html" target="_top" xlink:title="KTOS public API — include this in your application code.">
<polygon fill="white" stroke="black" points="44.5,-112.5 44.5,-131.5 91.5,-131.5 91.5,-112.5 44.5,-112.5"/>
<text text-anchor="middle" x="68" y="-119.5" font-family="Helvetica,sans-Serif" font-size="10.00">ktos.h</text>
</a>
</g>
</g>
<!-- Node2&#45;&gt;Node3 -->
<g id="edge2" class="edge">
<title>Node2&#45;&gt;Node3</title>
<path fill="none" stroke="midnightblue" d="M68,-168.08C68,-161.01 68,-150.86 68,-141.99"/>
<polygon fill="midnightblue" stroke="midnightblue" points="71.5,-141.75 68,-131.75 64.5,-141.75 71.5,-141.75"/>
</g>
<!-- Node4 -->
<g id="node4" class="node">
<title>Node4</title>
<g id="a_node4"><a xlink:title=" ">
<polygon fill="white" stroke="#bfbfbf" points="0,-0.5 0,-19.5 62,-19.5 62,-0.5 0,-0.5"/>
<text text-anchor="middle" x="31" y="-7.5" font-family="Helvetica,sans-Serif" font-size="10.00">stdbool.h</text>
</a>
</g>
</g>
<!-- Node3&#45;&gt;Node4 -->
<g id="edge3" class="edge">
<title>Node3&#45;&gt;Node4</title>
<path fill="none" stroke="midnightblue" d="M65.1,-112.37C59.1,-94.54 45.23,-53.3 37.15,-29.27"/>
<polygon fill="midnightblue" stroke="midnightblue" points="40.4,-27.95 33.89,-19.59 33.76,-30.19 40.4,-27.95"/>
</g>
<!-- Node5 -->
<g id="node5" class="node">
<title>Node5</title>
<g id="a_node5"><a xlink:href="ktos__multi_8h.html" target="_top" xlink:title="Portable primitive types, constants, and utility prototypes used throughout the KTOS kernel and all B...">
<polygon fill="white" stroke="black" points="65.5,-56.5 65.5,-75.5 142.5,-75.5 142.5,-56.5 65.5,-56.5"/>
<text text-anchor="middle" x="104" y="-63.5" font-family="Helvetica,sans-Serif" font-size="10.00">ktos_multi.h</text>
</a>
</g>
</g>
<!-- Node3&#45;&gt;Node5 -->
<g id="edge4" class="edge">
<title>Node3&#45;&gt;Node5</title>
<path fill="none" stroke="midnightblue" d="M73.94,-112.08C78.98,-104.53 86.34,-93.49 92.51,-84.23"/>
<polygon fill="midnightblue" stroke="midnightblue" points="95.53,-86.01 98.17,-75.75 89.71,-82.13 95.53,-86.01"/>
</g>
<!-- Node5&#45;&gt;Node4 -->
<g id="edge7" class="edge">
<title>Node5&#45;&gt;Node4</title>
<path fill="none" stroke="midnightblue" d="M92.27,-56.32C81.16,-48.11 64.26,-35.6 51.02,-25.81"/>
<polygon fill="midnightblue" stroke="midnightblue" points="53.06,-22.97 42.94,-19.83 48.9,-28.59 53.06,-22.97"/>
</g>
<!-- Node6 -->
<g id="node6" class="node">
<title>Node6</title>
<g id="a_node6"><a xlink:title=" ">
<polygon fill="white" stroke="#bfbfbf" points="80.5,-0.5 80.5,-19.5 133.5,-19.5 133.5,-0.5 80.5,-0.5"/>
<text text-anchor="middle" x="107" y="-7.5" font-family="Helvetica,sans-Serif" font-size="10.00">stdint.h</text>
</a>
</g>
</g>
<!-- Node5&#45;&gt;Node6 -->
<g id="edge5" class="edge">
<title>Node5&#45;&gt;Node6</title>
<path fill="none" stroke="midnightblue" d="M104.5,-56.08C104.89,-49.01 105.45,-38.86 105.95,-29.99"/>
<polygon fill="midnightblue" stroke="midnightblue" points="109.45,-29.93 106.51,-19.75 102.46,-29.54 109.45,-29.93"/>
</g>
<!-- Node7 -->
<g id="node7" class="node">
<title>Node7</title>
<g id="a_node7"><a xlink:title=" ">
<polygon fill="white" stroke="#bfbfbf" points="152,-0.5 152,-19.5 208,-19.5 208,-0.5 152,-0.5"/>
<text text-anchor="middle" x="180" y="-7.5" font-family="Helvetica,sans-Serif" font-size="10.00">stddef.h</text>
</a>
</g>
</g>
<!-- Node5&#45;&gt;Node7 -->
<g id="edge6" class="edge">
<title>Node5&#45;&gt;Node7</title>
<path fill="none" stroke="midnightblue" d="M116.21,-56.32C127.78,-48.11 145.38,-35.6 159.16,-25.81"/>
<polygon fill="midnightblue" stroke="midnightblue" points="161.44,-28.48 167.57,-19.83 157.39,-22.77 161.44,-28.48"/>
</g>
</g>
</svg>
