<?xml version="1.0" encoding="UTF-8" standalone="no"?>
<!DOCTYPE svg PUBLIC "-//W3C//DTD SVG 1.1//EN"
 "http://www.w3.org/Graphics/SVG/1.1/DTD/svg11.dtd">
<!-- Generated by graphviz version 2.43.0 (0)
 -->
<!-- Title: bsp/atmega328p Pages: 1 -->
<svg width="118pt" height="151pt"
 viewBox="0.00 0.00 118.00 151.00" xmlns="http://www.w3.org/2000/svg" xmlns:xlink="http://www.w3.org/1999/xlink">
<g id="graph0" class="graph" transform="scale(1 1) rotate(0) translate(4 147)">
<title>bsp/atmega328p</title>
<polygon fill="white" stroke="transparent" points="-4,4 -4,-147 114,-147 114,4 -4,4"/>
<g id="clust1" class="cluster">
<title>clusterdir_3c5459f7c179b79c90e2565474bb2856</title>
<g id="a_clust1"><a xlink:href="dir_3c5459f7c179b79c90e2565474bb2856.html" target="_top" xlink:title="bsp">
<polygon fill="#ddddee" stroke="black" points="8,-64 8,-135 102,-135 102,-64 8,-64"/>
<text text-anchor="middle" x="55" y="-123" font-family="Helvetica,sans-Serif" font-size="10.00">bsp</text>
</a>
</g>
</g>
<!-- dir_b357e37434186df21fde4b75ac4ac724 -->
<g id="node1" class="node">
<title>dir_b357e37434186df21fde4b75ac4ac724</title>
<g id="a_node1"><a xlink:href="dir_b357e37434186df21fde4b75ac4ac724.html" target="_top" xlink:title="atmega328p">
<polygon fill="#eeeeff" stroke="black" points="94,-108 16,-108 16,-72 94,-72 94,-108"/>
<text text-anchor="middle" x="55" y="-87.5" font-family="Helvetica,sans-Serif" font-size="10.00">atmega328p</text>
</a>
</g>
</g>
<!-- dir_4270bfced15e0e73154b13468c7c9ad9 -->
<g id="node2" class="node">
<title>dir_4270bfced15e0e73154b13468c7c9ad9</title>
<g id="a_node2"><a xlink:href="dir_4270bfced15e0e73154b13468c7c9ad9.html" target="_top" xlink:title="core">
<polygon fill="none" stroke="black" points="82,-36 28,-36 28,0 82,0 82,-36"/>
<text text-anchor="middle" x="55" y="-15.5" font-family="Helvetica,sans-Serif" font-size="10.00">core</text>
</a>
</g>
</g>
<!-- dir_b357e37434186df21fde4b75ac4ac724&#45;&gt;dir_4270bfced15e0e73154b13468c7c9ad9 -->
<g id="edge1" class="edge">
<title>dir_b357e37434186df21fde4b75ac4ac724&#45;&gt;dir_4270bfced15e0e73154b13468c7c9ad9</title>
<path fill="none" stroke="black" d="M55,-71.7C55,-63.98 55,-54.71 55,-46.11"/>
<polygon fill="black" stroke="black" points="58.5,-46.1 55,-36.1 51.5,-46.1 58.5,-46.1"/>
<g id="a_edge1&#45;headlabel"><a xlink:href="dir_000001_000005.html" target="_top" xlink:title="1">
<text text-anchor="middle" x="61.34" y="-47.2" font-family="Helvetica,sans-Serif" font-size="10.00">1</text>
</a>
</g>
</g>
</g>
</svg>
