<?xml version="1.0" encoding="UTF-8" standalone="no"?>
<!DOCTYPE svg PUBLIC "-//W3C//DTD SVG 1.1//EN"
 "http://www.w3.org/Graphics/SVG/1.1/DTD/svg11.dtd">
<!-- Generated by graphviz version 2.43.0 (0)
 -->
<!-- Title: bsp/esp8266 Pages: 1 -->
<svg width="98pt" height="151pt"
 viewBox="0.00 0.00 98.00 151.00" xmlns="http://www.w3.org/2000/svg" xmlns:xlink="http://www.w3.org/1999/xlink">
<g id="graph0" class="graph" transform="scale(1 1) rotate(0) translate(4 147)">
<title>bsp/esp8266</title>
<polygon fill="white" stroke="transparent" points="-4,4 -4,-147 94,-147 94,4 -4,4"/>
<g id="clust1" class="cluster">
<title>clusterdir_3c5459f7c179b79c90e2565474bb2856</title>
<g id="a_clust1"><a xlink:href="dir_3c5459f7c179b79c90e2565474bb2856.html" target="_top" xlink:title="bsp">
<polygon fill="#ddddee" stroke="black" points="8,-64 8,-135 82,-135 82,-64 8,-64"/>
<text text-anchor="middle" x="45" y="-123" font-family="Helvetica,sans-Serif" font-size="10.00">bsp</text>
</a>
</g>
</g>
<!-- dir_b76b1ae3a49d6fa6dcec0828110f1b4c -->
<g id="node1" class="node">
<title>dir_b76b1ae3a49d6fa6dcec0828110f1b4c</title>
<g id="a_node1"><a xlink:href="dir_b76b1ae3a49d6fa6dcec0828110f1b4c.html" target="_top" xlink:title="esp8266">
<polygon fill="#eeeeff" stroke="black" points="74,-108 16,-108 16,-72 74,-72 74,-108"/>
<text text-anchor="middle" x="45" y="-87.5" font-family="Helvetica,sans-Serif" font-size="10.00">esp8266</text>
</a>
</g>
</g>
<!-- dir_4270bfced15e0e73154b13468c7c9ad9 -->
<g id="node2" class="node">
<title>dir_4270bfced15e0e73154b13468c7c9ad9</title>
<g id="a_node2"><a xlink:href="dir_4270bfced15e0e73154b13468c7c9ad9.html" target="_top" xlink:title="core">
<polygon fill="none" stroke="black" points="72,-36 18,-36 18,0 72,0 72,-36"/>
<text text-anchor="middle" x="45" y="-15.5" font-family="Helvetica,sans-Serif" font-size="10.00">core</text>
</a>
</g>
</g>
<!-- dir_b76b1ae3a49d6fa6dcec0828110f1b4c&#45;&gt;dir_4270bfced15e0e73154b13468c7c9ad9 -->
<g id="edge1" class="edge">
<title>dir_b76b1ae3a49d6fa6dcec0828110f1b4c&#45;&gt;dir_4270bfced15e0e73154b13468c7c9ad9</title>
<path fill="none" stroke="black" d="M45,-71.7C45,-63.98 45,-54.71 45,-46.11"/>
<polygon fill="black" stroke="black" points="48.5,-46.1 45,-36.1 41.5,-46.1 48.5,-46.1"/>
<g id="a_edge1&#45;headlabel"><a xlink:href="dir_000002_000005.html" target="_top" xlink:title="1">
<text text-anchor="middle" x="51.34" y="-47.2" font-family="Helvetica,sans-Serif" font-size="10.00">1</text>
</a>
</g>
</g>
</g>
</svg>
