<?xml version="1.0" encoding="UTF-8" standalone="no"?>
<!DOCTYPE svg PUBLIC "-//W3C//DTD SVG 1.1//EN"
 "http://www.w3.org/Graphics/SVG/1.1/DTD/svg11.dtd">
<!-- Generated by graphviz version 2.43.0 (0)
 -->
<!-- Title: bsp Pages: 1 -->
<svg width="441pt" height="132pt"
 viewBox="0.00 0.00 441.00 132.00" xmlns="http://www.w3.org/2000/svg" xmlns:xlink="http://www.w3.org/1999/xlink">
<g id="graph0" class="graph" transform="scale(1 1) rotate(0) translate(4 128)">
<title>bsp</title>
<polygon fill="white" stroke="transparent" points="-4,4 -4,-128 437,-128 437,4 -4,4"/>
<g id="clust1" class="cluster">
<title>clusterdir_3c5459f7c179b79c90e2565474bb2856</title>
<g id="a_clust1"><a xlink:href="dir_3c5459f7c179b79c90e2565474bb2856.html" target="_top">
<polygon fill="#eeeeff" stroke="black" points="8,-64 8,-116 425,-116 425,-64 8,-64"/>
</a>
</g>
</g>
<!-- dir_3c5459f7c179b79c90e2565474bb2856 -->
<g id="node1" class="node">
<title>dir_3c5459f7c179b79c90e2565474bb2856</title>
<text text-anchor="middle" x="390" y="-87.5" font-family="Helvetica,sans-Serif" font-size="10.00">bsp</text>
</g>
<!-- dir_b357e37434186df21fde4b75ac4ac724 -->
<g id="node2" class="node">
<title>dir_b357e37434186df21fde4b75ac4ac724</title>
<g id="a_node2"><a xlink:href="dir_b357e37434186df21fde4b75ac4ac724.html" target="_top" xlink:title="atmega328p">
<polygon fill="white" stroke="black" points="345,-108 267,-108 267,-72 345,-72 345,-108"/>
<text text-anchor="middle" x="306" y="-87.5" font-family="Helvetica,sans-Serif" font-size="10.00">atmega328p</text>
</a>
</g>
</g>
<!-- dir_4270bfced15e0e73154b13468c7c9ad9 -->
<g id="node6" class="node">
<title>dir_4270bfced15e0e73154b13468c7c9ad9</title>
<g id="a_node6"><a xlink:href="dir_4270bfced15e0e73154b13468c7c9ad9.html" target="_top" xlink:title="core">
<polygon fill="none" stroke="black" points="206,-36 152,-36 152,0 206,0 206,-36"/>
<text text-anchor="middle" x="179" y="-15.5" font-family="Helvetica,sans-Serif" font-size="10.00">core</text>
</a>
</g>
</g>
<!-- dir_b357e37434186df21fde4b75ac4ac724&#45;&gt;dir_4270bfced15e0e73154b13468c7c9ad9 -->
<g id="edge2" class="edge">
<title>dir_b357e37434186df21fde4b75ac4ac724&#45;&gt;dir_4270bfced15e0e73154b13468c7c9ad9</title>
<path fill="none" stroke="black" d="M274.93,-71.88C256.88,-61.93 234.06,-49.35 215.2,-38.95"/>
<polygon fill="black" stroke="black" points="216.74,-35.81 206.3,-34.05 213.37,-41.94 216.74,-35.81"/>
<g id="a_edge2&#45;headlabel"><a xlink:href="dir_000001_000005.html" target="_top" xlink:title="1">
<text text-anchor="middle" x="221.26" y="-32.56" font-family="Helvetica,sans-Serif" font-size="10.00">1</text>
</a>
</g>
</g>
<!-- dir_b76b1ae3a49d6fa6dcec0828110f1b4c -->
<g id="node3" class="node">
<title>dir_b76b1ae3a49d6fa6dcec0828110f1b4c</title>
<g id="a_node3"><a xlink:href="dir_b76b1ae3a49d6fa6dcec0828110f1b4c.html" target="_top" xlink:title="esp8266">
<polygon fill="white" stroke="black" points="249,-108 191,-108 191,-72 249,-72 249,-108"/>
<text text-anchor="middle" x="220" y="-87.5" font-family="Helvetica,sans-Serif" font-size="10.00">esp8266</text>
</a>
</g>
</g>
<!-- dir_b76b1ae3a49d6fa6dcec0828110f1b4c&#45;&gt;dir_4270bfced15e0e73154b13468c7c9ad9 -->
<g id="edge4" class="edge">
<title>dir_b76b1ae3a49d6fa6dcec0828110f1b4c&#45;&gt;dir_4270bfced15e0e73154b13468c7c9ad9</title>
<path fill="none" stroke="black" d="M209.87,-71.7C205.15,-63.64 199.44,-53.89 194.22,-44.98"/>
<polygon fill="black" stroke="black" points="197.09,-42.96 189.02,-36.1 191.05,-46.5 197.09,-42.96"/>
<g id="a_edge4&#45;headlabel"><a xlink:href="dir_000002_000005.html" target="_top" xlink:title="1">
<text text-anchor="middle" x="201.36" y="-42.13" font-family="Helvetica,sans-Serif" font-size="10.00">1</text>
</a>
</g>
</g>
<!-- dir_f03b531fee39210e9e9db2d57f0ec594 -->
<g id="node4" class="node">
<title>dir_f03b531fee39210e9e9db2d57f0ec594</title>
<g id="a_node4"><a xlink:href="dir_f03b531fee39210e9e9db2d57f0ec594.html" target="_top" xlink:title="stm32f030">
<polygon fill="white" stroke="black" points="172.5,-108 103.5,-108 103.5,-72 172.5,-72 172.5,-108"/>
<text text-anchor="middle" x="138" y="-87.5" font-family="Helvetica,sans-Serif" font-size="10.00">stm32f030</text>
</a>
</g>
</g>
<!-- dir_f03b531fee39210e9e9db2d57f0ec594&#45;&gt;dir_4270bfced15e0e73154b13468c7c9ad9 -->
<g id="edge1" class="edge">
<title>dir_f03b531fee39210e9e9db2d57f0ec594&#45;&gt;dir_4270bfced15e0e73154b13468c7c9ad9</title>
<path fill="none" stroke="black" d="M148.13,-71.7C152.85,-63.64 158.56,-53.89 163.78,-44.98"/>
<polygon fill="black" stroke="black" points="166.95,-46.5 168.98,-36.1 160.91,-42.96 166.95,-46.5"/>
<g id="a_edge1&#45;headlabel"><a xlink:href="dir_000003_000005.html" target="_top" xlink:title="1">
<text text-anchor="middle" x="167.58" y="-48.54" font-family="Helvetica,sans-Serif" font-size="10.00">1</text>
</a>
</g>
</g>
<!-- dir_7477c4cb5a87dd7ffdeaa6c1dbaa5452 -->
<g id="node5" class="node">
<title>dir_7477c4cb5a87dd7ffdeaa6c1dbaa5452</title>
<g id="a_node5"><a xlink:href="dir_7477c4cb5a87dd7ffdeaa6c1dbaa5452.html" target="_top" xlink:title="stm32f103">
<polygon fill="white" stroke="black" points="85.5,-108 16.5,-108 16.5,-72 85.5,-72 85.5,-108"/>
<text text-anchor="middle" x="51" y="-87.5" font-family="Helvetica,sans-Serif" font-size="10.00">stm32f103</text>
</a>
</g>
</g>
<!-- dir_7477c4cb5a87dd7ffdeaa6c1dbaa5452&#45;&gt;dir_4270bfced15e0e73154b13468c7c9ad9 -->
<g id="edge3" class="edge">
<title>dir_7477c4cb5a87dd7ffdeaa6c1dbaa5452&#45;&gt;dir_4270bfced15e0e73154b13468c7c9ad9</title>
<path fill="none" stroke="black" d="M80.77,-71.96C85.52,-69.27 90.38,-66.55 95,-64 110.59,-55.39 127.93,-46.07 142.78,-38.15"/>
<polygon fill="black" stroke="black" points="144.48,-41.21 151.67,-33.42 141.2,-35.03 144.48,-41.21"/>
<g id="a_edge3&#45;headlabel"><a xlink:href="dir_000004_000005.html" target="_top" xlink:title="1">
<text text-anchor="middle" x="142.65" y="-42.9" font-family="Helvetica,sans-Serif" font-size="10.00">1</text>
</a>
</g>
</g>
</g>
</svg>
