<?xml version="1.0" encoding="UTF-8" standalone="no"?>
<!DOCTYPE svg PUBLIC "-//W3C//DTD SVG 1.1//EN"
 "http://www.w3.org/Graphics/SVG/1.1/DTD/svg11.dtd">
<!-- Generated by graphviz version 2.43.0 (0)
 -->
<!-- Title: ktos_RunOS Pages: 1 -->
<svg width="263pt" height="142pt"
 viewBox="0.00 0.00 263.00 142.00" xmlns="http://www.w3.org/2000/svg" xmlns:xlink="http://www.w3.org/1999/xlink">
<g id="graph0" class="graph" transform="scale(1 1) rotate(0) translate(4 138)">
<title>ktos_RunOS</title>
<polygon fill="white" stroke="transparent" points="-4,4 -4,-138 259,-138 259,4 -4,4"/>
<!-- Node1 -->
<g id="node1" class="node">
<title>Node1</title>
<g id="a_node1"><a xlink:title="Start the KTOS scheduler. Never returns.">
<polygon fill="#bfbfbf" stroke="black" points="0,-57.5 0,-76.5 75,-76.5 75,-57.5 0,-57.5"/>
<text text-anchor="middle" x="37.5" y="-64.5" font-family="Helvetica,sans-Serif" font-size="10.00">ktos_RunOS</text>
</a>
</g>
</g>
<!-- Node2 -->
<g id="node2" class="node">
<title>Node2</title>
<g id="a_node2"><a xlink:href="group__ktos__core.html#ga7aca2702c8fa0e02fd05461d4f5d23fe" target="_top" xlink:title="Emit a fatal&#45;error message and halt execution.">
<polygon fill="white" stroke="black" points="134,-114.5 134,-133.5 232,-133.5 232,-114.5 134,-114.5"/>
<text text-anchor="middle" x="183" y="-121.5" font-family="Helvetica,sans-Serif" font-size="10.00">ktos_Emergency</text>
</a>
</g>
</g>
<!-- Node1&#45;&gt;Node2 -->
<g id="edge1" class="edge">
<title>Node1&#45;&gt;Node2</title>
<path fill="none" stroke="midnightblue" d="M54.15,-76.5C68.52,-84.91 90.61,-97.04 111,-105 117.23,-107.43 123.88,-109.66 130.53,-111.68"/>
<polygon fill="midnightblue" stroke="midnightblue" points="129.63,-115.06 140.2,-114.47 131.57,-108.33 129.63,-115.06"/>
</g>
<!-- Node3 -->
<g id="node3" class="node">
<title>Node3</title>
<g id="a_node3"><a xlink:href="group__ktos__hal.html#gae42df35bd10d7d6b296be9687d436a32" target="_top" xlink:title="Configure and start the 1 ms system tick timer.">
<polygon fill="white" stroke="black" points="111,-76.5 111,-95.5 255,-95.5 255,-76.5 111,-76.5"/>
<text text-anchor="middle" x="183" y="-83.5" font-family="Helvetica,sans-Serif" font-size="10.00">ktos_hal_InitSystemTimer</text>
</a>
</g>
</g>
<!-- Node1&#45;&gt;Node3 -->
<g id="edge2" class="edge">
<title>Node1&#45;&gt;Node3</title>
<path fill="none" stroke="midnightblue" d="M75.08,-71.84C83.05,-72.9 91.78,-74.05 100.71,-75.24"/>
<polygon fill="midnightblue" stroke="midnightblue" points="100.48,-78.74 110.85,-76.58 101.4,-71.8 100.48,-78.74"/>
</g>
<!-- Node4 -->
<g id="node4" class="node">
<title>Node4</title>
<g id="a_node4"><a xlink:href="group__ktos__hal.html#gada7d06870787ac11ce8ebc4df1fc9b4b" target="_top" xlink:title="Launch the KTOS scheduler and the first task. Never returns.">
<polygon fill="white" stroke="black" points="116,-38.5 116,-57.5 250,-57.5 250,-38.5 116,-38.5"/>
<text text-anchor="middle" x="183" y="-45.5" font-family="Helvetica,sans-Serif" font-size="10.00">ktos_hal_StartScheduler</text>
</a>
</g>
</g>
<!-- Node1&#45;&gt;Node4 -->
<g id="edge3" class="edge">
<title>Node1&#45;&gt;Node4</title>
<path fill="none" stroke="midnightblue" d="M75.08,-62.16C84.52,-60.91 95.04,-59.51 105.69,-58.1"/>
<polygon fill="midnightblue" stroke="midnightblue" points="106.46,-61.53 115.92,-56.75 105.54,-54.59 106.46,-61.53"/>
</g>
<!-- Node5 -->
<g id="node5" class="node">
<title>Node5</title>
<g id="a_node5"><a xlink:href="ktos_8c.html#a2a3876653c789ddcd5a9ccf968d98fe0" target="_top" xlink:title="1 ms system tick interrupt handler.">
<polygon fill="white" stroke="black" points="118.5,-0.5 118.5,-19.5 247.5,-19.5 247.5,-0.5 118.5,-0.5"/>
<text text-anchor="middle" x="183" y="-7.5" font-family="Helvetica,sans-Serif" font-size="10.00">ktos_timer_irq_handler</text>
</a>
</g>
</g>
<!-- Node1&#45;&gt;Node5 -->
<g id="edge4" class="edge">
<title>Node1&#45;&gt;Node5</title>
<path fill="none" stroke="midnightblue" d="M54.15,-57.5C68.52,-49.09 90.61,-36.96 111,-29 117.23,-26.57 123.88,-24.34 130.53,-22.32"/>
<polygon fill="midnightblue" stroke="midnightblue" points="131.57,-25.67 140.2,-19.53 129.63,-18.94 131.57,-25.67"/>
</g>
</g>
</svg>
