<?xml version="1.0" encoding="UTF-8" standalone="no"?>
<!DOCTYPE svg PUBLIC "-//W3C//DTD SVG 1.1//EN"
 "http://www.w3.org/Graphics/SVG/1.1/DTD/svg11.dtd">
<!-- Generated by graphviz version 2.43.0 (0)
 -->
<!-- Title: ktos_hal_DisableInterrupts Pages: 1 -->
<svg width="355pt" height="142pt"
 viewBox="0.00 0.00 355.00 142.00" xmlns="http://www.w3.org/2000/svg" xmlns:xlink="http://www.w3.org/1999/xlink">
<g id="graph0" class="graph" transform="scale(1 1) rotate(0) translate(4 138)">
<title>ktos_hal_DisableInterrupts</title>
<polygon fill="white" stroke="transparent" points="-4,4 -4,-138 351,-138 351,4 -4,4"/>
<!-- Node1 -->
<g id="node1" class="node">
<title>Node1</title>
<g id="a_node1"><a xlink:title="Disable all maskable interrupts.">
<polygon fill="#bfbfbf" stroke="black" points="200,-57.5 200,-76.5 347,-76.5 347,-57.5 200,-57.5"/>
<text text-anchor="middle" x="273.5" y="-64.5" font-family="Helvetica,sans-Serif" font-size="10.00">ktos_hal_DisableInterrupts</text>
</a>
</g>
</g>
<!-- Node2 -->
<g id="node2" class="node">
<title>Node2</title>
<g id="a_node2"><a xlink:href="ktos_8c.html#a43c4623c2553d09a59385aabe971d75d" target="_top" xlink:title="Round&#45;robin cooperative scheduler — runs on the OS stack.">
<polygon fill="white" stroke="black" points="80.5,-114.5 80.5,-133.5 160.5,-133.5 160.5,-114.5 80.5,-114.5"/>
<text text-anchor="middle" x="120.5" y="-121.5" font-family="Helvetica,sans-Serif" font-size="10.00">__attribute__</text>
</a>
</g>
</g>
<!-- Node1&#45;&gt;Node2 -->
<g id="edge1" class="edge">
<title>Node1&#45;&gt;Node2</title>
<path fill="none" stroke="midnightblue" d="M237.52,-80.2C209.8,-90.67 171.71,-105.05 146.86,-114.43"/>
<polygon fill="midnightblue" stroke="midnightblue" points="239.11,-83.35 247.23,-76.54 236.63,-76.8 239.11,-83.35"/>
</g>
<!-- Node3 -->
<g id="node3" class="node">
<title>Node3</title>
<g id="a_node3"><a xlink:href="ktos_8c.html#abdccd1793b29f0ab71047c522a9fb262" target="_top" xlink:title=" ">
<polygon fill="white" stroke="black" points="77,-76.5 77,-95.5 164,-95.5 164,-76.5 77,-76.5"/>
<text text-anchor="middle" x="120.5" y="-83.5" font-family="Helvetica,sans-Serif" font-size="10.00">ktos_SendMsg</text>
</a>
</g>
</g>
<!-- Node1&#45;&gt;Node3 -->
<g id="edge2" class="edge">
<title>Node1&#45;&gt;Node3</title>
<path fill="none" stroke="midnightblue" d="M189.64,-77.43C180.79,-78.54 172.08,-79.64 164,-80.65"/>
<polygon fill="midnightblue" stroke="midnightblue" points="190.17,-80.89 199.65,-76.17 189.3,-73.94 190.17,-80.89"/>
</g>
<!-- Node5 -->
<g id="node5" class="node">
<title>Node5</title>
<g id="a_node5"><a xlink:href="ktos_8c.html#a58c939684b243c872c31ec084dba395a" target="_top" xlink:title=" ">
<polygon fill="white" stroke="black" points="85.5,-38.5 85.5,-57.5 155.5,-57.5 155.5,-38.5 85.5,-38.5"/>
<text text-anchor="middle" x="120.5" y="-45.5" font-family="Helvetica,sans-Serif" font-size="10.00">ktos_Sleep</text>
</a>
</g>
</g>
<!-- Node1&#45;&gt;Node5 -->
<g id="edge4" class="edge">
<title>Node1&#45;&gt;Node5</title>
<path fill="none" stroke="midnightblue" d="M189.56,-56.56C177.59,-55.06 165.87,-53.58 155.62,-52.29"/>
<polygon fill="midnightblue" stroke="midnightblue" points="189.3,-60.06 199.65,-57.83 190.17,-53.11 189.3,-60.06"/>
</g>
<!-- Node6 -->
<g id="node6" class="node">
<title>Node6</title>
<g id="a_node6"><a xlink:href="group__ktos__core.html#ga36de1d506ed25f7ec37016362726b45c" target="_top" xlink:title="Wake a sleeping task immediately from an ISR or another task.">
<polygon fill="white" stroke="black" points="79,-0.5 79,-19.5 162,-19.5 162,-0.5 79,-0.5"/>
<text text-anchor="middle" x="120.5" y="-7.5" font-family="Helvetica,sans-Serif" font-size="10.00">ktos_WakeUp</text>
</a>
</g>
</g>
<!-- Node1&#45;&gt;Node6 -->
<g id="edge5" class="edge">
<title>Node1&#45;&gt;Node6</title>
<path fill="none" stroke="midnightblue" d="M237.52,-53.8C209.8,-43.33 171.71,-28.95 146.86,-19.57"/>
<polygon fill="midnightblue" stroke="midnightblue" points="236.63,-57.2 247.23,-57.46 239.11,-50.65 236.63,-57.2"/>
</g>
<!-- Node4 -->
<g id="node4" class="node">
<title>Node4</title>
<g id="a_node4"><a xlink:href="ktos__multi_8c.html#ae66f6b31b5ad750f1fe042a706a4e3d4" target="_top" xlink:title=" ">
<polygon fill="white" stroke="black" points="0,-76.5 0,-95.5 41,-95.5 41,-76.5 0,-76.5"/>
<text text-anchor="middle" x="20.5" y="-83.5" font-family="Helvetica,sans-Serif" font-size="10.00">main</text>
</a>
</g>
</g>
<!-- Node3&#45;&gt;Node4 -->
<g id="edge3" class="edge">
<title>Node3&#45;&gt;Node4</title>
<path fill="none" stroke="midnightblue" d="M66.8,-86C57.59,-86 48.55,-86 41,-86"/>
<polygon fill="midnightblue" stroke="midnightblue" points="66.8,-89.5 76.8,-86 66.8,-82.5 66.8,-89.5"/>
</g>
</g>
</svg>
