<?xml version="1.0" encoding="UTF-8" standalone="no"?>
<!DOCTYPE svg PUBLIC "-//W3C//DTD SVG 1.1//EN"
 "http://www.w3.org/Graphics/SVG/1.1/DTD/svg11.dtd">
<!-- Generated by graphviz version 2.43.0 (0)
 -->
<!-- Title: ktos_Emergency Pages: 1 -->
<svg width="493pt" height="142pt"
 viewBox="0.00 0.00 493.00 142.00" xmlns="http://www.w3.org/2000/svg" xmlns:xlink="http://www.w3.org/1999/xlink">
<g id="graph0" class="graph" transform="scale(1 1) rotate(0) translate(4 138)">
<title>ktos_Emergency</title>
<polygon fill="white" stroke="transparent" points="-4,4 -4,-138 489,-138 489,4 -4,4"/>
<!-- Node1 -->
<g id="node1" class="node">
<title>Node1</title>
<g id="a_node1"><a xlink:title="Emit a fatal&#45;error message and halt execution.">
<polygon fill="#bfbfbf" stroke="black" points="387,-57.5 387,-76.5 485,-76.5 485,-57.5 387,-57.5"/>
<text text-anchor="middle" x="436" y="-64.5" font-family="Helvetica,sans-Serif" font-size="10.00">ktos_Emergency</text>
</a>
</g>
</g>
<!-- Node2 -->
<g id="node2" class="node">
<title>Node2</title>
<g id="a_node2"><a xlink:href="ktos_8c.html#a0472bc90096e9ce7acb6b8aebc9b127b" target="_top" xlink:title="Default exit handler called when a task function returns.">
<polygon fill="white" stroke="black" points="193,-114.5 193,-133.5 351,-133.5 351,-114.5 193,-114.5"/>
<text text-anchor="middle" x="272" y="-121.5" font-family="Helvetica,sans-Serif" font-size="10.00">ktos_DefaultTaskExitHandler</text>
</a>
</g>
</g>
<!-- Node1&#45;&gt;Node2 -->
<g id="edge1" class="edge">
<title>Node1&#45;&gt;Node2</title>
<path fill="none" stroke="midnightblue" d="M402.37,-80.48C386.9,-86.7 368.11,-94.02 351,-100 336.42,-105.1 320.12,-110.21 306.2,-114.39"/>
<polygon fill="midnightblue" stroke="midnightblue" points="404.05,-83.58 412,-76.58 401.42,-77.09 404.05,-83.58"/>
</g>
<!-- Node3 -->
<g id="node3" class="node">
<title>Node3</title>
<g id="a_node3"><a xlink:href="ktos_8c.html#a9f7bbd66bfb5333402db8b6c413cb114" target="_top" xlink:title=" ">
<polygon fill="white" stroke="black" points="77,-76.5 77,-95.5 157,-95.5 157,-76.5 77,-76.5"/>
<text text-anchor="middle" x="117" y="-83.5" font-family="Helvetica,sans-Serif" font-size="10.00">ktos_InitTask</text>
</a>
</g>
</g>
<!-- Node1&#45;&gt;Node3 -->
<g id="edge4" class="edge">
<title>Node1&#45;&gt;Node3</title>
<path fill="none" stroke="midnightblue" d="M376.54,-70.5C312.64,-74.33 212.06,-80.36 157.08,-83.66"/>
<polygon fill="midnightblue" stroke="midnightblue" points="377.08,-73.98 386.85,-69.89 376.66,-66.99 377.08,-73.98"/>
</g>
<!-- Node4 -->
<g id="node4" class="node">
<title>Node4</title>
<g id="a_node4"><a xlink:href="ktos__multi_8c.html#ae66f6b31b5ad750f1fe042a706a4e3d4" target="_top" xlink:title=" ">
<polygon fill="white" stroke="black" points="0,-38.5 0,-57.5 41,-57.5 41,-38.5 0,-38.5"/>
<text text-anchor="middle" x="20.5" y="-45.5" font-family="Helvetica,sans-Serif" font-size="10.00">main</text>
</a>
</g>
</g>
<!-- Node1&#45;&gt;Node4 -->
<g id="edge7" class="edge">
<title>Node1&#45;&gt;Node4</title>
<path fill="none" stroke="midnightblue" d="M376.53,-64.31C282.25,-59.98 101.17,-51.66 41.27,-48.91"/>
<polygon fill="midnightblue" stroke="midnightblue" points="376.61,-67.82 386.76,-64.78 376.93,-60.83 376.61,-67.82"/>
</g>
<!-- Node5 -->
<g id="node5" class="node">
<title>Node5</title>
<g id="a_node5"><a xlink:href="group__ktos__core.html#ga6580b57b65ece0e7bfcc48823db105f3" target="_top" xlink:title="Start the KTOS scheduler. Never returns.">
<polygon fill="white" stroke="black" points="79.5,-0.5 79.5,-19.5 154.5,-19.5 154.5,-0.5 79.5,-0.5"/>
<text text-anchor="middle" x="117" y="-7.5" font-family="Helvetica,sans-Serif" font-size="10.00">ktos_RunOS</text>
</a>
</g>
</g>
<!-- Node1&#45;&gt;Node5 -->
<g id="edge5" class="edge">
<title>Node1&#45;&gt;Node5</title>
<path fill="none" stroke="midnightblue" d="M405.85,-53.29C389.98,-46.4 369.79,-38.57 351,-34 283.04,-17.48 201.22,-12.32 154.84,-10.72"/>
<polygon fill="midnightblue" stroke="midnightblue" points="404.57,-56.55 415.13,-57.41 407.42,-50.15 404.57,-56.55"/>
</g>
<!-- Node2&#45;&gt;Node3 -->
<g id="edge2" class="edge">
<title>Node2&#45;&gt;Node3</title>
<path fill="none" stroke="midnightblue" d="M222.52,-111.96C201.15,-106.65 176.39,-100.5 156.33,-95.52"/>
<polygon fill="midnightblue" stroke="midnightblue" points="221.84,-115.4 232.39,-114.41 223.53,-108.6 221.84,-115.4"/>
</g>
<!-- Node3&#45;&gt;Node4 -->
<g id="edge3" class="edge">
<title>Node3&#45;&gt;Node4</title>
<path fill="none" stroke="midnightblue" d="M82.87,-72.68C68.96,-67.08 53.24,-60.76 41.2,-55.92"/>
<polygon fill="midnightblue" stroke="midnightblue" points="81.57,-75.93 92.15,-76.41 84.18,-69.43 81.57,-75.93"/>
</g>
<!-- Node5&#45;&gt;Node4 -->
<g id="edge6" class="edge">
<title>Node5&#45;&gt;Node4</title>
<path fill="none" stroke="midnightblue" d="M82.87,-23.32C68.96,-28.92 53.24,-35.24 41.2,-40.08"/>
<polygon fill="midnightblue" stroke="midnightblue" points="84.18,-26.57 92.15,-19.59 81.57,-20.07 84.18,-26.57"/>
</g>
</g>
</svg>
