<?xml version="1.0" encoding="UTF-8" standalone="no"?>
<!DOCTYPE svg PUBLIC "-//W3C//DTD SVG 1.1//EN"
 "http://www.w3.org/Graphics/SVG/1.1/DTD/svg11.dtd">
<!-- Generated by graphviz version 2.43.0 (0)
 -->
<!-- Title: KTOS HAL — hardware abstraction layer Pages: 1 -->
<svg width="343pt" height="124pt"
 viewBox="0.00 0.00 343.00 124.00" xmlns="http://www.w3.org/2000/svg" xmlns:xlink="http://www.w3.org/1999/xlink">
<g id="graph0" class="graph" transform="scale(1 1) rotate(0) translate(4 120)">
<title>KTOS HAL — hardware abstraction layer</title>
<polygon fill="white" stroke="transparent" points="-4,4 -4,-120 339,-120 339,4 -4,4"/>
<!-- Node3 -->
<g id="node1" class="node">
<title>Node3</title>
<g id="a_node1"><a xlink:href="group__ktos__bsp__xtensa.html" target="_top" xlink:title=" ">
<polygon fill="white" stroke="black" points="305,-116 192,-116 192,-86 305,-86 305,-116"/>
<text text-anchor="start" x="200" y="-104" font-family="Helvetica,sans-Serif" font-size="10.00">KTOS BSP — Xtensa</text>
<text text-anchor="middle" x="248.5" y="-93" font-family="Helvetica,sans-Serif" font-size="10.00"> LX106 (ESP8266)</text>
</a>
</g>
</g>
<!-- Node2 -->
<g id="node2" class="node">
<title>Node2</title>
<g id="a_node2"><a xlink:href="group__ktos__bsp__avr.html" target="_top" xlink:title=" ">
<polygon fill="white" stroke="black" points="335,-67.5 162,-67.5 162,-48.5 335,-48.5 335,-67.5"/>
<text text-anchor="middle" x="248.5" y="-55.5" font-family="Helvetica,sans-Serif" font-size="10.00">KTOS BSP — AVR (ATmega328P)</text>
</a>
</g>
</g>
<!-- Node4 -->
<g id="node3" class="node">
<title>Node4</title>
<g id="a_node3"><a xlink:href="group__ktos__bsp__arm.html" target="_top" xlink:title=" ">
<polygon fill="white" stroke="black" points="328.5,-30 168.5,-30 168.5,0 328.5,0 328.5,-30"/>
<text text-anchor="start" x="176.5" y="-18" font-family="Helvetica,sans-Serif" font-size="10.00">KTOS BSP — ARM Cortex</text>
<text text-anchor="middle" x="248.5" y="-7" font-family="Helvetica,sans-Serif" font-size="10.00">&#45;M (STM32F103, STM32F030)</text>
</a>
</g>
</g>
<!-- Node1 -->
<g id="node4" class="node">
<title>Node1</title>
<g id="a_node4"><a xlink:title=" ">
<polygon fill="#bfbfbf" stroke="black" points="126,-73 0,-73 0,-43 126,-43 126,-73"/>
<text text-anchor="start" x="8" y="-61" font-family="Helvetica,sans-Serif" font-size="10.00">KTOS HAL — hardware</text>
<text text-anchor="middle" x="63" y="-50" font-family="Helvetica,sans-Serif" font-size="10.00"> abstraction layer</text>
</a>
</g>
</g>
<!-- Node1&#45;&gt;Node3 -->
<g id="edge2" class="edge">
<title>Node1&#45;&gt;Node3</title>
<path fill="none" stroke="black" d="M136.01,-74.88C154.59,-79.23 174.31,-83.85 191.91,-87.97"/>
<polygon fill="black" stroke="black" points="136.66,-71.43 126.12,-72.56 135.06,-78.25 136.66,-71.43"/>
</g>
<!-- Node1&#45;&gt;Node2 -->
<g id="edge1" class="edge">
<title>Node1&#45;&gt;Node2</title>
<path fill="none" stroke="black" d="M136.2,-58C144.56,-58 153.15,-58 161.68,-58"/>
<polygon fill="black" stroke="black" points="136.12,-54.5 126.12,-58 136.12,-61.5 136.12,-54.5"/>
</g>
<!-- Node1&#45;&gt;Node4 -->
<g id="edge3" class="edge">
<title>Node1&#45;&gt;Node4</title>
<path fill="none" stroke="black" d="M136.2,-41.08C151.73,-37.44 168.04,-33.62 183.25,-30.06"/>
<polygon fill="black" stroke="black" points="135.06,-37.75 126.12,-43.44 136.66,-44.57 135.06,-37.75"/>
</g>
</g>
</svg>
