<?xml version="1.0" encoding="UTF-8" standalone="no"?>
<!DOCTYPE svg PUBLIC "-//W3C//DTD SVG 1.1//EN"
 "http://www.w3.org/Graphics/SVG/1.1/DTD/svg11.dtd">
<!-- Generated by graphviz version 2.43.0 (0)
 -->
<!-- Title: ktos_Sleep Pages: 1 -->
<svg width="261pt" height="104pt"
 viewBox="0.00 0.00 261.00 104.00" xmlns="http://www.w3.org/2000/svg" xmlns:xlink="http://www.w3.org/1999/xlink">
<g id="graph0" class="graph" transform="scale(1 1) rotate(0) translate(4 100)">
<title>ktos_Sleep</title>
<polygon fill="white" stroke="transparent" points="-4,4 -4,-100 257,-100 257,4 -4,4"/>
<!-- Node1 -->
<g id="node1" class="node">
<title>Node1</title>
<g id="a_node1"><a xlink:title=" ">
<polygon fill="#bfbfbf" stroke="black" points="0,-38.5 0,-57.5 70,-57.5 70,-38.5 0,-38.5"/>
<text text-anchor="middle" x="35" y="-45.5" font-family="Helvetica,sans-Serif" font-size="10.00">ktos_Sleep</text>
</a>
</g>
</g>
<!-- Node2 -->
<g id="node2" class="node">
<title>Node2</title>
<g id="a_node2"><a xlink:href="group__ktos__hal.html#ga5810bd4a4ed08259ec13bef908828d20" target="_top" xlink:title="Perform a cooperative context switch between two execution contexts.">
<polygon fill="white" stroke="black" points="112.5,-76.5 112.5,-95.5 246.5,-95.5 246.5,-76.5 112.5,-76.5"/>
<text text-anchor="middle" x="179.5" y="-83.5" font-family="Helvetica,sans-Serif" font-size="10.00">ktos_hal_ContextSwitch</text>
</a>
</g>
</g>
<!-- Node1&#45;&gt;Node2 -->
<g id="edge1" class="edge">
<title>Node1&#45;&gt;Node2</title>
<path fill="none" stroke="midnightblue" d="M70.16,-57.34C81.56,-60.43 94.32,-63.88 106,-67 114.5,-69.27 123.56,-71.66 132.29,-73.96"/>
<polygon fill="midnightblue" stroke="midnightblue" points="131.41,-77.34 141.97,-76.49 133.19,-70.57 131.41,-77.34"/>
</g>
<!-- Node3 -->
<g id="node3" class="node">
<title>Node3</title>
<g id="a_node3"><a xlink:href="group__ktos__hal.html#ga13869e4884f47a98d8c9b2d9902d5eda" target="_top" xlink:title="Disable all maskable interrupts.">
<polygon fill="white" stroke="black" points="106,-38.5 106,-57.5 253,-57.5 253,-38.5 106,-38.5"/>
<text text-anchor="middle" x="179.5" y="-45.5" font-family="Helvetica,sans-Serif" font-size="10.00">ktos_hal_DisableInterrupts</text>
</a>
</g>
</g>
<!-- Node1&#45;&gt;Node3 -->
<g id="edge2" class="edge">
<title>Node1&#45;&gt;Node3</title>
<path fill="none" stroke="midnightblue" d="M70.13,-48C78.03,-48 86.77,-48 95.76,-48"/>
<polygon fill="midnightblue" stroke="midnightblue" points="95.99,-51.5 105.99,-48 95.99,-44.5 95.99,-51.5"/>
</g>
<!-- Node4 -->
<g id="node4" class="node">
<title>Node4</title>
<g id="a_node4"><a xlink:href="group__ktos__hal.html#ga6741995a98c2dc4867a11717fa64efd8" target="_top" xlink:title="Re&#45;enable maskable interrupts.">
<polygon fill="white" stroke="black" points="108,-0.5 108,-19.5 251,-19.5 251,-0.5 108,-0.5"/>
<text text-anchor="middle" x="179.5" y="-7.5" font-family="Helvetica,sans-Serif" font-size="10.00">ktos_hal_EnableInterrupts</text>
</a>
</g>
</g>
<!-- Node1&#45;&gt;Node4 -->
<g id="edge3" class="edge">
<title>Node1&#45;&gt;Node4</title>
<path fill="none" stroke="midnightblue" d="M70.16,-38.66C81.56,-35.57 94.32,-32.12 106,-29 114.5,-26.73 123.56,-24.34 132.29,-22.04"/>
<polygon fill="midnightblue" stroke="midnightblue" points="133.19,-25.43 141.97,-19.51 131.41,-18.66 133.19,-25.43"/>
</g>
</g>
</svg>
