<?xml version="1.0" encoding="UTF-8" standalone="no"?>
<!DOCTYPE svg PUBLIC "-//W3C//DTD SVG 1.1//EN"
 "http://www.w3.org/Graphics/SVG/1.1/DTD/svg11.dtd">
<!-- Generated by graphviz version 2.43.0 (0)
 -->
<!-- Title: ktos_InitTask Pages: 1 -->
<svg width="452pt" height="142pt"
 viewBox="0.00 0.00 452.00 142.00" xmlns="http://www.w3.org/2000/svg" xmlns:xlink="http://www.w3.org/1999/xlink">
<g id="graph0" class="graph" transform="scale(1 1) rotate(0) translate(4 138)">
<title>ktos_InitTask</title>
<polygon fill="white" stroke="transparent" points="-4,4 -4,-138 448,-138 448,4 -4,4"/>
<!-- Node1 -->
<g id="node1" class="node">
<title>Node1</title>
<g id="a_node1"><a xlink:title=" ">
<polygon fill="#bfbfbf" stroke="black" points="0,-38.5 0,-57.5 80,-57.5 80,-38.5 0,-38.5"/>
<text text-anchor="middle" x="40" y="-45.5" font-family="Helvetica,sans-Serif" font-size="10.00">ktos_InitTask</text>
</a>
</g>
</g>
<!-- Node2 -->
<g id="node2" class="node">
<title>Node2</title>
<g id="a_node2"><a xlink:href="ktos_8c.html#a0472bc90096e9ce7acb6b8aebc9b127b" target="_top" xlink:title="Default exit handler called when a task function returns.">
<polygon fill="white" stroke="black" points="116,-76.5 116,-95.5 274,-95.5 274,-76.5 116,-76.5"/>
<text text-anchor="middle" x="195" y="-83.5" font-family="Helvetica,sans-Serif" font-size="10.00">ktos_DefaultTaskExitHandler</text>
</a>
</g>
</g>
<!-- Node1&#45;&gt;Node2 -->
<g id="edge1" class="edge">
<title>Node1&#45;&gt;Node2</title>
<path fill="none" stroke="midnightblue" d="M79.61,-57.59C99.71,-62.58 124.48,-68.73 145.82,-74.03"/>
<polygon fill="midnightblue" stroke="midnightblue" points="145.12,-77.47 155.67,-76.48 146.81,-70.67 145.12,-77.47"/>
</g>
<!-- Node4 -->
<g id="node4" class="node">
<title>Node4</title>
<g id="a_node4"><a xlink:href="group__ktos__core.html#ga7aca2702c8fa0e02fd05461d4f5d23fe" target="_top" xlink:title="Emit a fatal&#45;error message and halt execution.">
<polygon fill="white" stroke="black" points="328,-38.5 328,-57.5 426,-57.5 426,-38.5 328,-38.5"/>
<text text-anchor="middle" x="377" y="-45.5" font-family="Helvetica,sans-Serif" font-size="10.00">ktos_Emergency</text>
</a>
</g>
</g>
<!-- Node1&#45;&gt;Node4 -->
<g id="edge5" class="edge">
<title>Node1&#45;&gt;Node4</title>
<path fill="none" stroke="midnightblue" d="M80.08,-48C138.61,-48 249.41,-48 317.57,-48"/>
<polygon fill="midnightblue" stroke="midnightblue" points="317.72,-51.5 327.72,-48 317.72,-44.5 317.72,-51.5"/>
</g>
<!-- Node6 -->
<g id="node6" class="node">
<title>Node6</title>
<g id="a_node6"><a xlink:href="group__ktos__hal.html#ga8556e39382caea4984aaefd7813ba7b1" target="_top" xlink:title="Set up the initial stack frame for a new task.">
<polygon fill="white" stroke="black" points="131,-0.5 131,-19.5 259,-19.5 259,-0.5 131,-0.5"/>
<text text-anchor="middle" x="195" y="-7.5" font-family="Helvetica,sans-Serif" font-size="10.00">ktos_hal_InitTaskStack</text>
</a>
</g>
</g>
<!-- Node1&#45;&gt;Node6 -->
<g id="edge6" class="edge">
<title>Node1&#45;&gt;Node6</title>
<path fill="none" stroke="midnightblue" d="M79.61,-38.41C99.71,-33.42 124.48,-27.27 145.82,-21.97"/>
<polygon fill="midnightblue" stroke="midnightblue" points="146.81,-25.33 155.67,-19.52 145.12,-18.53 146.81,-25.33"/>
</g>
<!-- Node3 -->
<g id="node3" class="node">
<title>Node3</title>
<g id="a_node3"><a xlink:href="group__ktos__core.html#ga77b699103f3ec266c0d79d849ead8c1c" target="_top" xlink:title="Printf&#45;style debug logging (active only when DEBUG == 1).">
<polygon fill="white" stroke="black" points="326.5,-114.5 326.5,-133.5 427.5,-133.5 427.5,-114.5 326.5,-114.5"/>
<text text-anchor="middle" x="377" y="-121.5" font-family="Helvetica,sans-Serif" font-size="10.00">ktos_DebugPrintf</text>
</a>
</g>
</g>
<!-- Node2&#45;&gt;Node3 -->
<g id="edge2" class="edge">
<title>Node2&#45;&gt;Node3</title>
<path fill="none" stroke="midnightblue" d="M241.42,-95.59C265.6,-100.69 295.53,-107.01 321.01,-112.39"/>
<polygon fill="midnightblue" stroke="midnightblue" points="320.4,-115.84 330.91,-114.48 321.84,-108.99 320.4,-115.84"/>
</g>
<!-- Node2&#45;&gt;Node4 -->
<g id="edge3" class="edge">
<title>Node2&#45;&gt;Node4</title>
<path fill="none" stroke="midnightblue" d="M241.42,-76.41C265.6,-71.31 295.53,-64.99 321.01,-59.61"/>
<polygon fill="midnightblue" stroke="midnightblue" points="321.84,-63.01 330.91,-57.52 320.4,-56.16 321.84,-63.01"/>
</g>
<!-- Node5 -->
<g id="node5" class="node">
<title>Node5</title>
<g id="a_node5"><a xlink:href="group__ktos__hal.html#ga5810bd4a4ed08259ec13bef908828d20" target="_top" xlink:title="Perform a cooperative context switch between two execution contexts.">
<polygon fill="white" stroke="black" points="310,-76.5 310,-95.5 444,-95.5 444,-76.5 310,-76.5"/>
<text text-anchor="middle" x="377" y="-83.5" font-family="Helvetica,sans-Serif" font-size="10.00">ktos_hal_ContextSwitch</text>
</a>
</g>
</g>
<!-- Node2&#45;&gt;Node5 -->
<g id="edge4" class="edge">
<title>Node2&#45;&gt;Node5</title>
<path fill="none" stroke="midnightblue" d="M274.17,-86C282.6,-86 291.17,-86 299.58,-86"/>
<polygon fill="midnightblue" stroke="midnightblue" points="299.74,-89.5 309.74,-86 299.74,-82.5 299.74,-89.5"/>
</g>
</g>
</svg>
