<?xml version="1.0" encoding="UTF-8" standalone="no"?>
<!DOCTYPE svg PUBLIC "-//W3C//DTD SVG 1.1//EN"
 "http://www.w3.org/Graphics/SVG/1.1/DTD/svg11.dtd">
<!-- Generated by graphviz version 2.43.0 (0)
 -->
<!-- Title: core/ktos_multi.c Pages: 1 -->
<svg width="331pt" height="196pt"
 viewBox="0.00 0.00 330.50 196.00" xmlns="http://www.w3.org/2000/svg" xmlns:xlink="http://www.w3.org/1999/xlink">
<g id="graph0" class="graph" transform="scale(1 1) rotate(0) translate(4 192)">
<title>core/ktos_multi.c</title>
<polygon fill="white" stroke="transparent" points="-4,4 -4,-192 326.5,-192 326.5,4 -4,4"/>
<!-- Node1 -->
<g id="node1" class="node">
<title>Node1</title>
<g id="a_node1"><a xlink:title=" ">
<polygon fill="#bfbfbf" stroke="black" points="141,-168.5 141,-187.5 242,-187.5 242,-168.5 141,-168.5"/>
<text text-anchor="middle" x="191.5" y="-175.5" font-family="Helvetica,sans-Serif" font-size="10.00">core/ktos_multi.c</text>
</a>
</g>
</g>
<!-- Node2 -->
<g id="node2" class="node">
<title>Node2</title>
<g id="a_node2"><a xlink:href="ktos__multi_8h.html" target="_top" xlink:title="Portable primitive types, constants, and utility prototypes used throughout the KTOS kernel and all B...">
<polygon fill="white" stroke="black" points="66,-56.5 66,-75.5 143,-75.5 143,-56.5 66,-56.5"/>
<text text-anchor="middle" x="104.5" y="-63.5" font-family="Helvetica,sans-Serif" font-size="10.00">ktos_multi.h</text>
</a>
</g>
</g>
<!-- Node1&#45;&gt;Node2 -->
<g id="edge1" class="edge">
<title>Node1&#45;&gt;Node2</title>
<path fill="none" stroke="midnightblue" d="M172.08,-168.47C157.05,-160.92 136.78,-148.53 124.5,-132 114.49,-118.52 109.43,-99.97 106.91,-86.13"/>
<polygon fill="midnightblue" stroke="midnightblue" points="110.3,-85.19 105.34,-75.83 103.39,-86.24 110.3,-85.19"/>
</g>
<!-- Node6 -->
<g id="node6" class="node">
<title>Node6</title>
<g id="a_node6"><a xlink:href="ktos_8h.html" target="_top" xlink:title="KTOS public API — include this in your application code.">
<polygon fill="white" stroke="black" points="133,-112.5 133,-131.5 180,-131.5 180,-112.5 133,-112.5"/>
<text text-anchor="middle" x="156.5" y="-119.5" font-family="Helvetica,sans-Serif" font-size="10.00">ktos.h</text>
</a>
</g>
</g>
<!-- Node1&#45;&gt;Node6 -->
<g id="edge5" class="edge">
<title>Node1&#45;&gt;Node6</title>
<path fill="none" stroke="midnightblue" d="M185.72,-168.08C180.83,-160.53 173.67,-149.49 167.67,-140.23"/>
<polygon fill="midnightblue" stroke="midnightblue" points="170.55,-138.24 162.17,-131.75 164.67,-142.05 170.55,-138.24"/>
</g>
<!-- Node7 -->
<g id="node7" class="node">
<title>Node7</title>
<g id="a_node7"><a xlink:title=" ">
<polygon fill="white" stroke="#bfbfbf" points="198.5,-112.5 198.5,-131.5 254.5,-131.5 254.5,-112.5 198.5,-112.5"/>
<text text-anchor="middle" x="226.5" y="-119.5" font-family="Helvetica,sans-Serif" font-size="10.00">stdarg.h</text>
</a>
</g>
</g>
<!-- Node1&#45;&gt;Node7 -->
<g id="edge8" class="edge">
<title>Node1&#45;&gt;Node7</title>
<path fill="none" stroke="midnightblue" d="M197.28,-168.08C202.17,-160.53 209.33,-149.49 215.33,-140.23"/>
<polygon fill="midnightblue" stroke="midnightblue" points="218.33,-142.05 220.83,-131.75 212.45,-138.24 218.33,-142.05"/>
</g>
<!-- Node8 -->
<g id="node8" class="node">
<title>Node8</title>
<g id="a_node8"><a xlink:title=" ">
<polygon fill="white" stroke="#bfbfbf" points="272.5,-112.5 272.5,-131.5 322.5,-131.5 322.5,-112.5 272.5,-112.5"/>
<text text-anchor="middle" x="297.5" y="-119.5" font-family="Helvetica,sans-Serif" font-size="10.00">stdio.h</text>
</a>
</g>
</g>
<!-- Node1&#45;&gt;Node8 -->
<g id="edge9" class="edge">
<title>Node1&#45;&gt;Node8</title>
<path fill="none" stroke="midnightblue" d="M208.53,-168.32C225.53,-159.66 251.88,-146.24 271.49,-136.25"/>
<polygon fill="midnightblue" stroke="midnightblue" points="273.19,-139.31 280.51,-131.65 270.01,-133.08 273.19,-139.31"/>
</g>
<!-- Node3 -->
<g id="node3" class="node">
<title>Node3</title>
<g id="a_node3"><a xlink:title=" ">
<polygon fill="white" stroke="#bfbfbf" points="0,-0.5 0,-19.5 53,-19.5 53,-0.5 0,-0.5"/>
<text text-anchor="middle" x="26.5" y="-7.5" font-family="Helvetica,sans-Serif" font-size="10.00">stdint.h</text>
</a>
</g>
</g>
<!-- Node2&#45;&gt;Node3 -->
<g id="edge2" class="edge">
<title>Node2&#45;&gt;Node3</title>
<path fill="none" stroke="midnightblue" d="M91.97,-56.32C79.91,-47.98 61.47,-35.21 47.23,-25.35"/>
<polygon fill="midnightblue" stroke="midnightblue" points="49.22,-22.47 39,-19.65 45.23,-28.22 49.22,-22.47"/>
</g>
<!-- Node4 -->
<g id="node4" class="node">
<title>Node4</title>
<g id="a_node4"><a xlink:title=" ">
<polygon fill="white" stroke="#bfbfbf" points="71.5,-0.5 71.5,-19.5 127.5,-19.5 127.5,-0.5 71.5,-0.5"/>
<text text-anchor="middle" x="99.5" y="-7.5" font-family="Helvetica,sans-Serif" font-size="10.00">stddef.h</text>
</a>
</g>
</g>
<!-- Node2&#45;&gt;Node4 -->
<g id="edge3" class="edge">
<title>Node2&#45;&gt;Node4</title>
<path fill="none" stroke="midnightblue" d="M103.67,-56.08C103.02,-49.01 102.08,-38.86 101.26,-29.99"/>
<polygon fill="midnightblue" stroke="midnightblue" points="104.72,-29.39 100.31,-19.75 97.75,-30.03 104.72,-29.39"/>
</g>
<!-- Node5 -->
<g id="node5" class="node">
<title>Node5</title>
<g id="a_node5"><a xlink:title=" ">
<polygon fill="white" stroke="#bfbfbf" points="145.5,-0.5 145.5,-19.5 207.5,-19.5 207.5,-0.5 145.5,-0.5"/>
<text text-anchor="middle" x="176.5" y="-7.5" font-family="Helvetica,sans-Serif" font-size="10.00">stdbool.h</text>
</a>
</g>
</g>
<!-- Node2&#45;&gt;Node5 -->
<g id="edge4" class="edge">
<title>Node2&#45;&gt;Node5</title>
<path fill="none" stroke="midnightblue" d="M116.07,-56.32C126.92,-48.18 143.38,-35.84 156.38,-26.09"/>
<polygon fill="midnightblue" stroke="midnightblue" points="158.82,-28.63 164.72,-19.83 154.62,-23.03 158.82,-28.63"/>
</g>
<!-- Node6&#45;&gt;Node2 -->
<g id="edge7" class="edge">
<title>Node6&#45;&gt;Node2</title>
<path fill="none" stroke="midnightblue" d="M147.91,-112.08C140.34,-104.22 129.12,-92.57 119.99,-83.08"/>
<polygon fill="midnightblue" stroke="midnightblue" points="122.38,-80.53 112.93,-75.75 117.34,-85.38 122.38,-80.53"/>
</g>
<!-- Node6&#45;&gt;Node5 -->
<g id="edge6" class="edge">
<title>Node6&#45;&gt;Node5</title>
<path fill="none" stroke="midnightblue" d="M158.07,-112.37C161.3,-94.62 168.74,-53.67 173.12,-29.6"/>
<polygon fill="midnightblue" stroke="midnightblue" points="176.59,-30.06 174.94,-19.59 169.71,-28.8 176.59,-30.06"/>
</g>
</g>
</svg>
