<?xml version="1.0" encoding="UTF-8" standalone="no"?>
<!DOCTYPE svg PUBLIC "-//W3C//DTD SVG 1.1//EN"
 "http://www.w3.org/Graphics/SVG/1.1/DTD/svg11.dtd">
<!-- Generated by graphviz version 2.43.0 (0)
 -->
<!-- Title: ktos_DefaultTaskExitHandler Pages: 1 -->
<svg width="336pt" height="104pt"
 viewBox="0.00 0.00 336.00 104.00" xmlns="http://www.w3.org/2000/svg" xmlns:xlink="http://www.w3.org/1999/xlink">
<g id="graph0" class="graph" transform="scale(1 1) rotate(0) translate(4 100)">
<title>ktos_DefaultTaskExitHandler</title>
<polygon fill="white" stroke="transparent" points="-4,4 -4,-100 332,-100 332,4 -4,4"/>
<!-- Node1 -->
<g id="node1" class="node">
<title>Node1</title>
<g id="a_node1"><a xlink:title="Default exit handler called when a task function returns.">
<polygon fill="#bfbfbf" stroke="black" points="0,-38.5 0,-57.5 158,-57.5 158,-38.5 0,-38.5"/>
<text text-anchor="middle" x="79" y="-45.5" font-family="Helvetica,sans-Serif" font-size="10.00">ktos_DefaultTaskExitHandler</text>
</a>
</g>
</g>
<!-- Node2 -->
<g id="node2" class="node">
<title>Node2</title>
<g id="a_node2"><a xlink:href="group__ktos__core.html#ga77b699103f3ec266c0d79d849ead8c1c" target="_top" xlink:title="Printf&#45;style debug logging (active only when DEBUG == 1).">
<polygon fill="white" stroke="black" points="210.5,-76.5 210.5,-95.5 311.5,-95.5 311.5,-76.5 210.5,-76.5"/>
<text text-anchor="middle" x="261" y="-83.5" font-family="Helvetica,sans-Serif" font-size="10.00">ktos_DebugPrintf</text>
</a>
</g>
</g>
<!-- Node1&#45;&gt;Node2 -->
<g id="edge1" class="edge">
<title>Node1&#45;&gt;Node2</title>
<path fill="none" stroke="midnightblue" d="M125.42,-57.59C149.6,-62.69 179.53,-69.01 205.01,-74.39"/>
<polygon fill="midnightblue" stroke="midnightblue" points="204.4,-77.84 214.91,-76.48 205.84,-70.99 204.4,-77.84"/>
</g>
<!-- Node3 -->
<g id="node3" class="node">
<title>Node3</title>
<g id="a_node3"><a xlink:href="group__ktos__core.html#ga7aca2702c8fa0e02fd05461d4f5d23fe" target="_top" xlink:title="Emit a fatal&#45;error message and halt execution.">
<polygon fill="white" stroke="black" points="212,-38.5 212,-57.5 310,-57.5 310,-38.5 212,-38.5"/>
<text text-anchor="middle" x="261" y="-45.5" font-family="Helvetica,sans-Serif" font-size="10.00">ktos_Emergency</text>
</a>
</g>
</g>
<!-- Node1&#45;&gt;Node3 -->
<g id="edge2" class="edge">
<title>Node1&#45;&gt;Node3</title>
<path fill="none" stroke="midnightblue" d="M158.17,-48C172.76,-48 187.77,-48 201.64,-48"/>
<polygon fill="midnightblue" stroke="midnightblue" points="201.99,-51.5 211.99,-48 201.99,-44.5 201.99,-51.5"/>
</g>
<!-- Node4 -->
<g id="node4" class="node">
<title>Node4</title>
<g id="a_node4"><a xlink:href="group__ktos__hal.html#ga5810bd4a4ed08259ec13bef908828d20" target="_top" xlink:title="Perform a cooperative context switch between two execution contexts.">
<polygon fill="white" stroke="black" points="194,-0.5 194,-19.5 328,-19.5 328,-0.5 194,-0.5"/>
<text text-anchor="middle" x="261" y="-7.5" font-family="Helvetica,sans-Serif" font-size="10.00">ktos_hal_ContextSwitch</text>
</a>
</g>
</g>
<!-- Node1&#45;&gt;Node4 -->
<g id="edge3" class="edge">
<title>Node1&#45;&gt;Node4</title>
<path fill="none" stroke="midnightblue" d="M125.42,-38.41C149.6,-33.31 179.53,-26.99 205.01,-21.61"/>
<polygon fill="midnightblue" stroke="midnightblue" points="205.84,-25.01 214.91,-19.52 204.4,-18.16 205.84,-25.01"/>
</g>
</g>
</svg>
