<?xml version="1.0" encoding="UTF-8" standalone="no"?>
<!DOCTYPE svg PUBLIC "-//W3C//DTD SVG 1.1//EN"
 "http://www.w3.org/Graphics/SVG/1.1/DTD/svg11.dtd">
<!-- Generated by graphviz version 2.43.0 (0)
 -->
<!-- Title: core/ktos_hal.h Pages: 1 -->
<svg width="632pt" height="95pt"
 viewBox="0.00 0.00 631.50 95.00" xmlns="http://www.w3.org/2000/svg" xmlns:xlink="http://www.w3.org/1999/xlink">
<g id="graph0" class="graph" transform="scale(1 1) rotate(0) translate(4 91)">
<title>core/ktos_hal.h</title>
<polygon fill="white" stroke="transparent" points="-4,4 -4,-91 627.5,-91 627.5,4 -4,4"/>
<!-- Node1 -->
<g id="node1" class="node">
<title>Node1</title>
<g id="a_node1"><a xlink:title="KTOS Hardware Abstraction Layer (HAL) interface.">
<polygon fill="#bfbfbf" stroke="black" points="249.5,-67.5 249.5,-86.5 340.5,-86.5 340.5,-67.5 249.5,-67.5"/>
<text text-anchor="middle" x="295" y="-74.5" font-family="Helvetica,sans-Serif" font-size="10.00">core/ktos_hal.h</text>
</a>
</g>
</g>
<!-- Node2 -->
<g id="node2" class="node">
<title>Node2</title>
<g id="a_node2"><a xlink:href="ktos_8c.html" target="_top" xlink:title="KTOS cooperative scheduler implementation.">
<polygon fill="white" stroke="black" points="0,-6 0,-25 70,-25 70,-6 0,-6"/>
<text text-anchor="middle" x="35" y="-13" font-family="Helvetica,sans-Serif" font-size="10.00">core/ktos.c</text>
</a>
</g>
</g>
<!-- Node1&#45;&gt;Node2 -->
<g id="edge1" class="edge">
<title>Node1&#45;&gt;Node2</title>
<path fill="none" stroke="midnightblue" d="M239.24,-66.18C195.38,-58.02 132.89,-45.44 79,-31 72.63,-29.29 65.83,-27.19 59.52,-25.12"/>
<polygon fill="midnightblue" stroke="midnightblue" points="238.67,-69.63 249.14,-68 239.94,-62.75 238.67,-69.63"/>
</g>
<!-- Node3 -->
<g id="node3" class="node">
<title>Node3</title>
<g id="a_node3"><a xlink:href="atmega328p_2ktos__bsp_8c.html" target="_top" xlink:title="KTOS Board Support Package — ATmega328P (AVR 8&#45;bit)">
<polygon fill="white" stroke="black" points="88,-0.5 88,-30.5 210,-30.5 210,-0.5 88,-0.5"/>
<text text-anchor="start" x="96" y="-18.5" font-family="Helvetica,sans-Serif" font-size="10.00">bsp/atmega328p/ktos</text>
<text text-anchor="middle" x="149" y="-7.5" font-family="Helvetica,sans-Serif" font-size="10.00">_bsp.c</text>
</a>
</g>
</g>
<!-- Node1&#45;&gt;Node3 -->
<g id="edge2" class="edge">
<title>Node1&#45;&gt;Node3</title>
<path fill="none" stroke="midnightblue" d="M264.55,-63.59C240.88,-53.94 208.03,-40.56 183.41,-30.52"/>
<polygon fill="midnightblue" stroke="midnightblue" points="263.5,-66.94 274.08,-67.48 266.14,-60.46 263.5,-66.94"/>
</g>
<!-- Node4 -->
<g id="node4" class="node">
<title>Node4</title>
<g id="a_node4"><a xlink:href="esp8266_2ktos__bsp_8c.html" target="_top" xlink:title="KTOS Board Support Package — ESP8266 (Xtensa LX106) — partial.">
<polygon fill="white" stroke="black" points="228.5,-6 228.5,-25 361.5,-25 361.5,-6 228.5,-6"/>
<text text-anchor="middle" x="295" y="-13" font-family="Helvetica,sans-Serif" font-size="10.00">bsp/esp8266/ktos_bsp.c</text>
</a>
</g>
</g>
<!-- Node1&#45;&gt;Node4 -->
<g id="edge3" class="edge">
<title>Node1&#45;&gt;Node4</title>
<path fill="none" stroke="midnightblue" d="M295,-57.32C295,-46.5 295,-33.4 295,-25.01"/>
<polygon fill="midnightblue" stroke="midnightblue" points="291.5,-57.48 295,-67.48 298.5,-57.48 291.5,-57.48"/>
</g>
<!-- Node5 -->
<g id="node5" class="node">
<title>Node5</title>
<g id="a_node5"><a xlink:href="stm32f030_2ktos__bsp_8c.html" target="_top" xlink:title="KTOS Board Support Package — STM32F030 (ARM Cortex&#45;M0)">
<polygon fill="white" stroke="black" points="379.5,-0.5 379.5,-30.5 492.5,-30.5 492.5,-0.5 379.5,-0.5"/>
<text text-anchor="start" x="387.5" y="-18.5" font-family="Helvetica,sans-Serif" font-size="10.00">bsp/stm32f030/ktos</text>
<text text-anchor="middle" x="436" y="-7.5" font-family="Helvetica,sans-Serif" font-size="10.00">_bsp.c</text>
</a>
</g>
</g>
<!-- Node1&#45;&gt;Node5 -->
<g id="edge4" class="edge">
<title>Node1&#45;&gt;Node5</title>
<path fill="none" stroke="midnightblue" d="M324.72,-63.46C347.55,-53.82 379.1,-40.51 402.77,-30.52"/>
<polygon fill="midnightblue" stroke="midnightblue" points="323.05,-60.36 315.2,-67.48 325.78,-66.81 323.05,-60.36"/>
</g>
<!-- Node6 -->
<g id="node6" class="node">
<title>Node6</title>
<g id="a_node6"><a xlink:href="stm32f103_2ktos__bsp_8c.html" target="_top" xlink:title="KTOS Board Support Package — STM32F103 (ARM Cortex&#45;M3)">
<polygon fill="white" stroke="black" points="510.5,-0.5 510.5,-30.5 623.5,-30.5 623.5,-0.5 510.5,-0.5"/>
<text text-anchor="start" x="518.5" y="-18.5" font-family="Helvetica,sans-Serif" font-size="10.00">bsp/stm32f103/ktos</text>
<text text-anchor="middle" x="567" y="-7.5" font-family="Helvetica,sans-Serif" font-size="10.00">_bsp.c</text>
</a>
</g>
</g>
<!-- Node1&#45;&gt;Node6 -->
<g id="edge5" class="edge">
<title>Node1&#45;&gt;Node6</title>
<path fill="none" stroke="midnightblue" d="M344.65,-65.28C386.6,-56.21 448.25,-42.84 502,-31 504.71,-30.4 507.48,-29.79 510.28,-29.17"/>
<polygon fill="midnightblue" stroke="midnightblue" points="343.73,-61.9 334.7,-67.44 345.21,-68.75 343.73,-61.9"/>
</g>
</g>
</svg>
