<?xml version="1.0" encoding="UTF-8" standalone="no"?>
<!DOCTYPE svg PUBLIC "-//W3C//DTD SVG 1.1//EN"
 "http://www.w3.org/Graphics/SVG/1.1/DTD/svg11.dtd">
<!-- Generated by graphviz version 2.43.0 (0)
 -->
<!-- Title: core/ktos_multi.h Pages: 1 -->
<svg width="632pt" height="207pt"
 viewBox="0.00 0.00 631.50 207.00" xmlns="http://www.w3.org/2000/svg" xmlns:xlink="http://www.w3.org/1999/xlink">
<g id="graph0" class="graph" transform="scale(1 1) rotate(0) translate(4 203)">
<title>core/ktos_multi.h</title>
<polygon fill="white" stroke="transparent" points="-4,4 -4,-203 627.5,-203 627.5,4 -4,4"/>
<!-- Node1 -->
<g id="node1" class="node">
<title>Node1</title>
<g id="a_node1"><a xlink:title="Portable primitive types, constants, and utility prototypes used throughout the KTOS kernel and all B...">
<polygon fill="#bfbfbf" stroke="black" points="98.5,-179.5 98.5,-198.5 199.5,-198.5 199.5,-179.5 98.5,-179.5"/>
<text text-anchor="middle" x="149" y="-186.5" font-family="Helvetica,sans-Serif" font-size="10.00">core/ktos_multi.h</text>
</a>
</g>
</g>
<!-- Node2 -->
<g id="node2" class="node">
<title>Node2</title>
<g id="a_node2"><a xlink:href="ktos_8c.html" target="_top" xlink:title="KTOS cooperative scheduler implementation.">
<polygon fill="white" stroke="black" points="0,-6 0,-25 70,-25 70,-6 0,-6"/>
<text text-anchor="middle" x="35" y="-13" font-family="Helvetica,sans-Serif" font-size="10.00">core/ktos.c</text>
</a>
</g>
</g>
<!-- Node1&#45;&gt;Node2 -->
<g id="edge1" class="edge">
<title>Node1&#45;&gt;Node2</title>
<path fill="none" stroke="midnightblue" d="M131.36,-172.56C122.53,-164.31 112.04,-153.68 104,-143 73.45,-102.43 47.96,-46.66 38.72,-25.3"/>
<polygon fill="midnightblue" stroke="midnightblue" points="129.13,-175.26 138.88,-179.4 133.84,-170.08 129.13,-175.26"/>
</g>
<!-- Node3 -->
<g id="node3" class="node">
<title>Node3</title>
<g id="a_node3"><a xlink:href="ktos_8h.html" target="_top" xlink:title="KTOS public API — include this in your application code.">
<polygon fill="white" stroke="black" points="113.5,-123.5 113.5,-142.5 184.5,-142.5 184.5,-123.5 113.5,-123.5"/>
<text text-anchor="middle" x="149" y="-130.5" font-family="Helvetica,sans-Serif" font-size="10.00">core/ktos.h</text>
</a>
</g>
</g>
<!-- Node1&#45;&gt;Node3 -->
<g id="edge2" class="edge">
<title>Node1&#45;&gt;Node3</title>
<path fill="none" stroke="midnightblue" d="M149,-168.8C149,-159.91 149,-149.78 149,-142.75"/>
<polygon fill="midnightblue" stroke="midnightblue" points="145.5,-169.08 149,-179.08 152.5,-169.08 145.5,-169.08"/>
</g>
<!-- Node9 -->
<g id="node9" class="node">
<title>Node9</title>
<g id="a_node9"><a xlink:href="ktos__multi_8c.html" target="_top" xlink:title=" ">
<polygon fill="white" stroke="black" points="212.5,-67.5 212.5,-86.5 313.5,-86.5 313.5,-67.5 212.5,-67.5"/>
<text text-anchor="middle" x="263" y="-74.5" font-family="Helvetica,sans-Serif" font-size="10.00">core/ktos_multi.c</text>
</a>
</g>
</g>
<!-- Node1&#45;&gt;Node9 -->
<g id="edge11" class="edge">
<title>Node1&#45;&gt;Node9</title>
<path fill="none" stroke="midnightblue" d="M165.37,-172.21C189.8,-148.63 234.99,-105.03 254.1,-86.59"/>
<polygon fill="midnightblue" stroke="midnightblue" points="162.71,-169.91 157.95,-179.37 167.57,-174.94 162.71,-169.91"/>
</g>
<!-- Node3&#45;&gt;Node2 -->
<g id="edge3" class="edge">
<title>Node3&#45;&gt;Node2</title>
<path fill="none" stroke="midnightblue" d="M129.06,-117.16C118.26,-108.77 104.94,-97.82 94,-87 73.12,-66.35 51.78,-38.96 41.42,-25.19"/>
<polygon fill="midnightblue" stroke="midnightblue" points="127.01,-120 137.08,-123.29 131.26,-114.44 127.01,-120"/>
</g>
<!-- Node4 -->
<g id="node4" class="node">
<title>Node4</title>
<g id="a_node4"><a xlink:href="ktos__hal_8h.html" target="_top" xlink:title="KTOS Hardware Abstraction Layer (HAL) interface.">
<polygon fill="white" stroke="black" points="103.5,-67.5 103.5,-86.5 194.5,-86.5 194.5,-67.5 103.5,-67.5"/>
<text text-anchor="middle" x="149" y="-74.5" font-family="Helvetica,sans-Serif" font-size="10.00">core/ktos_hal.h</text>
</a>
</g>
</g>
<!-- Node3&#45;&gt;Node4 -->
<g id="edge4" class="edge">
<title>Node3&#45;&gt;Node4</title>
<path fill="none" stroke="midnightblue" d="M149,-112.8C149,-103.91 149,-93.78 149,-86.75"/>
<polygon fill="midnightblue" stroke="midnightblue" points="145.5,-113.08 149,-123.08 152.5,-113.08 145.5,-113.08"/>
</g>
<!-- Node3&#45;&gt;Node9 -->
<g id="edge10" class="edge">
<title>Node3&#45;&gt;Node9</title>
<path fill="none" stroke="midnightblue" d="M176.24,-119.1C197.54,-109.01 226.54,-95.27 245.02,-86.52"/>
<polygon fill="midnightblue" stroke="midnightblue" points="174.6,-116 167.06,-123.44 177.6,-122.33 174.6,-116"/>
</g>
<!-- Node4&#45;&gt;Node2 -->
<g id="edge5" class="edge">
<title>Node4&#45;&gt;Node2</title>
<path fill="none" stroke="midnightblue" d="M123.54,-62.71C101.46,-51.19 70.17,-34.86 51.3,-25.01"/>
<polygon fill="midnightblue" stroke="midnightblue" points="122.18,-65.95 132.67,-67.48 125.42,-59.75 122.18,-65.95"/>
</g>
<!-- Node5 -->
<g id="node5" class="node">
<title>Node5</title>
<g id="a_node5"><a xlink:href="atmega328p_2ktos__bsp_8c.html" target="_top" xlink:title="KTOS Board Support Package — ATmega328P (AVR 8&#45;bit)">
<polygon fill="white" stroke="black" points="88,-0.5 88,-30.5 210,-30.5 210,-0.5 88,-0.5"/>
<text text-anchor="start" x="96" y="-18.5" font-family="Helvetica,sans-Serif" font-size="10.00">bsp/atmega328p/ktos</text>
<text text-anchor="middle" x="149" y="-7.5" font-family="Helvetica,sans-Serif" font-size="10.00">_bsp.c</text>
</a>
</g>
</g>
<!-- Node4&#45;&gt;Node5 -->
<g id="edge6" class="edge">
<title>Node4&#45;&gt;Node5</title>
<path fill="none" stroke="midnightblue" d="M149,-57.23C149,-48.59 149,-38.5 149,-30.52"/>
<polygon fill="midnightblue" stroke="midnightblue" points="145.5,-57.48 149,-67.48 152.5,-57.48 145.5,-57.48"/>
</g>
<!-- Node6 -->
<g id="node6" class="node">
<title>Node6</title>
<g id="a_node6"><a xlink:href="esp8266_2ktos__bsp_8c.html" target="_top" xlink:title="KTOS Board Support Package — ESP8266 (Xtensa LX106) — partial.">
<polygon fill="white" stroke="black" points="228.5,-6 228.5,-25 361.5,-25 361.5,-6 228.5,-6"/>
<text text-anchor="middle" x="295" y="-13" font-family="Helvetica,sans-Serif" font-size="10.00">bsp/esp8266/ktos_bsp.c</text>
</a>
</g>
</g>
<!-- Node4&#45;&gt;Node6 -->
<g id="edge7" class="edge">
<title>Node4&#45;&gt;Node6</title>
<path fill="none" stroke="midnightblue" d="M179.35,-63.63C207.71,-52.07 249.31,-35.12 274.12,-25.01"/>
<polygon fill="midnightblue" stroke="midnightblue" points="177.86,-60.46 169.92,-67.48 180.5,-66.94 177.86,-60.46"/>
</g>
<!-- Node7 -->
<g id="node7" class="node">
<title>Node7</title>
<g id="a_node7"><a xlink:href="stm32f030_2ktos__bsp_8c.html" target="_top" xlink:title="KTOS Board Support Package — STM32F030 (ARM Cortex&#45;M0)">
<polygon fill="white" stroke="black" points="379.5,-0.5 379.5,-30.5 492.5,-30.5 492.5,-0.5 379.5,-0.5"/>
<text text-anchor="start" x="387.5" y="-18.5" font-family="Helvetica,sans-Serif" font-size="10.00">bsp/stm32f030/ktos</text>
<text text-anchor="middle" x="436" y="-7.5" font-family="Helvetica,sans-Serif" font-size="10.00">_bsp.c</text>
</a>
</g>
</g>
<!-- Node4&#45;&gt;Node7 -->
<g id="edge8" class="edge">
<title>Node4&#45;&gt;Node7</title>
<path fill="none" stroke="midnightblue" d="M202.28,-65.5C247.29,-56.56 313.43,-43.26 371,-31 373.71,-30.42 376.49,-29.83 379.29,-29.22"/>
<polygon fill="midnightblue" stroke="midnightblue" points="201.57,-62.08 192.44,-67.45 202.93,-68.94 201.57,-62.08"/>
</g>
<!-- Node8 -->
<g id="node8" class="node">
<title>Node8</title>
<g id="a_node8"><a xlink:href="stm32f103_2ktos__bsp_8c.html" target="_top" xlink:title="KTOS Board Support Package — STM32F103 (ARM Cortex&#45;M3)">
<polygon fill="white" stroke="black" points="510.5,-0.5 510.5,-30.5 623.5,-30.5 623.5,-0.5 510.5,-0.5"/>
<text text-anchor="start" x="518.5" y="-18.5" font-family="Helvetica,sans-Serif" font-size="10.00">bsp/stm32f103/ktos</text>
<text text-anchor="middle" x="567" y="-7.5" font-family="Helvetica,sans-Serif" font-size="10.00">_bsp.c</text>
</a>
</g>
</g>
<!-- Node4&#45;&gt;Node8 -->
<g id="edge9" class="edge">
<title>Node4&#45;&gt;Node8</title>
<path fill="none" stroke="midnightblue" d="M204.77,-66.81C337.24,-48.25 373.29,-53.05 502,-31 504.74,-30.53 507.53,-30.02 510.35,-29.49"/>
<polygon fill="midnightblue" stroke="midnightblue" points="204.05,-63.37 194.64,-68.24 205.04,-70.3 204.05,-63.37"/>
</g>
</g>
</svg>
