<?xml version="1.0" encoding="UTF-8" standalone="no"?>
<!DOCTYPE svg PUBLIC "-//W3C//DTD SVG 1.1//EN"
 "http://www.w3.org/Graphics/SVG/1.1/DTD/svg11.dtd">
<!-- Generated by graphviz version 2.43.0 (0)
 -->
<!-- Title: core/ktos.c Pages: 1 -->
<svg width="321pt" height="252pt"
 viewBox="0.00 0.00 321.00 252.00" xmlns="http://www.w3.org/2000/svg" xmlns:xlink="http://www.w3.org/1999/xlink">
<g id="graph0" class="graph" transform="scale(1 1) rotate(0) translate(4 248)">
<title>core/ktos.c</title>
<polygon fill="white" stroke="transparent" points="-4,4 -4,-248 317,-248 317,4 -4,4"/>
<!-- Node1 -->
<g id="node1" class="node">
<title>Node1</title>
<g id="a_node1"><a xlink:title="KTOS cooperative scheduler implementation.">
<polygon fill="#bfbfbf" stroke="black" points="134.5,-224.5 134.5,-243.5 204.5,-243.5 204.5,-224.5 134.5,-224.5"/>
<text text-anchor="middle" x="169.5" y="-231.5" font-family="Helvetica,sans-Serif" font-size="10.00">core/ktos.c</text>
</a>
</g>
</g>
<!-- Node2 -->
<g id="node2" class="node">
<title>Node2</title>
<g id="a_node2"><a xlink:href="ktos__multi_8h.html" target="_top" xlink:title="Portable primitive types, constants, and utility prototypes used throughout the KTOS kernel and all B...">
<polygon fill="white" stroke="black" points="61,-56.5 61,-75.5 138,-75.5 138,-56.5 61,-56.5"/>
<text text-anchor="middle" x="99.5" y="-63.5" font-family="Helvetica,sans-Serif" font-size="10.00">ktos_multi.h</text>
</a>
</g>
</g>
<!-- Node1&#45;&gt;Node2 -->
<g id="edge1" class="edge">
<title>Node1&#45;&gt;Node2</title>
<path fill="none" stroke="midnightblue" d="M155.98,-224.38C144.61,-216.38 128.92,-203.41 120.5,-188 102.59,-155.21 99.36,-110.61 99.1,-85.74"/>
<polygon fill="midnightblue" stroke="midnightblue" points="102.61,-85.55 99.16,-75.53 95.61,-85.51 102.61,-85.55"/>
</g>
<!-- Node5 -->
<g id="node5" class="node">
<title>Node5</title>
<g id="a_node5"><a xlink:title=" ">
<polygon fill="white" stroke="#bfbfbf" points="145.5,-0.5 145.5,-19.5 207.5,-19.5 207.5,-0.5 145.5,-0.5"/>
<text text-anchor="middle" x="176.5" y="-7.5" font-family="Helvetica,sans-Serif" font-size="10.00">stdbool.h</text>
</a>
</g>
</g>
<!-- Node1&#45;&gt;Node5 -->
<g id="edge11" class="edge">
<title>Node1&#45;&gt;Node5</title>
<path fill="none" stroke="midnightblue" d="M182,-224.3C192.37,-216.25 206.39,-203.24 212.5,-188 234.82,-132.34 203.71,-61.08 186.54,-28.57"/>
<polygon fill="midnightblue" stroke="midnightblue" points="189.6,-26.88 181.73,-19.79 183.46,-30.24 189.6,-26.88"/>
</g>
<!-- Node6 -->
<g id="node6" class="node">
<title>Node6</title>
<g id="a_node6"><a xlink:href="ktos_8h.html" target="_top" xlink:title="KTOS public API — include this in your application code.">
<polygon fill="white" stroke="black" points="125,-112.5 125,-131.5 172,-131.5 172,-112.5 125,-112.5"/>
<text text-anchor="middle" x="148.5" y="-119.5" font-family="Helvetica,sans-Serif" font-size="10.00">ktos.h</text>
</a>
</g>
</g>
<!-- Node1&#45;&gt;Node6 -->
<g id="edge5" class="edge">
<title>Node1&#45;&gt;Node6</title>
<path fill="none" stroke="midnightblue" d="M157,-224.3C146.63,-216.25 132.61,-203.24 126.5,-188 120.08,-171.98 127.97,-153.28 136.03,-140.06"/>
<polygon fill="midnightblue" stroke="midnightblue" points="139.09,-141.78 141.72,-131.52 133.26,-137.9 139.09,-141.78"/>
</g>
<!-- Node7 -->
<g id="node7" class="node">
<title>Node7</title>
<g id="a_node7"><a xlink:href="ktos__hal_8h.html" target="_top" xlink:title="KTOS Hardware Abstraction Layer (HAL) interface.">
<polygon fill="white" stroke="black" points="136,-168.5 136,-187.5 203,-187.5 203,-168.5 136,-168.5"/>
<text text-anchor="middle" x="169.5" y="-175.5" font-family="Helvetica,sans-Serif" font-size="10.00">ktos_hal.h</text>
</a>
</g>
</g>
<!-- Node1&#45;&gt;Node7 -->
<g id="edge8" class="edge">
<title>Node1&#45;&gt;Node7</title>
<path fill="none" stroke="midnightblue" d="M169.5,-224.08C169.5,-217.01 169.5,-206.86 169.5,-197.99"/>
<polygon fill="midnightblue" stroke="midnightblue" points="173,-197.75 169.5,-187.75 166,-197.75 173,-197.75"/>
</g>
<!-- Node8 -->
<g id="node8" class="node">
<title>Node8</title>
<g id="a_node8"><a xlink:title=" ">
<polygon fill="white" stroke="#bfbfbf" points="260,-168.5 260,-187.5 313,-187.5 313,-168.5 260,-168.5"/>
<text text-anchor="middle" x="286.5" y="-175.5" font-family="Helvetica,sans-Serif" font-size="10.00">stdlib.h</text>
</a>
</g>
</g>
<!-- Node1&#45;&gt;Node8 -->
<g id="edge10" class="edge">
<title>Node1&#45;&gt;Node8</title>
<path fill="none" stroke="midnightblue" d="M188.04,-224.44C207.12,-215.64 237.07,-201.81 258.94,-191.72"/>
<polygon fill="midnightblue" stroke="midnightblue" points="260.43,-194.88 268.05,-187.52 257.5,-188.53 260.43,-194.88"/>
</g>
<!-- Node3 -->
<g id="node3" class="node">
<title>Node3</title>
<g id="a_node3"><a xlink:title=" ">
<polygon fill="white" stroke="#bfbfbf" points="0,-0.5 0,-19.5 53,-19.5 53,-0.5 0,-0.5"/>
<text text-anchor="middle" x="26.5" y="-7.5" font-family="Helvetica,sans-Serif" font-size="10.00">stdint.h</text>
</a>
</g>
</g>
<!-- Node2&#45;&gt;Node3 -->
<g id="edge2" class="edge">
<title>Node2&#45;&gt;Node3</title>
<path fill="none" stroke="midnightblue" d="M87.77,-56.32C76.66,-48.11 59.76,-35.6 46.52,-25.81"/>
<polygon fill="midnightblue" stroke="midnightblue" points="48.56,-22.97 38.44,-19.83 44.4,-28.59 48.56,-22.97"/>
</g>
<!-- Node4 -->
<g id="node4" class="node">
<title>Node4</title>
<g id="a_node4"><a xlink:title=" ">
<polygon fill="white" stroke="#bfbfbf" points="71.5,-0.5 71.5,-19.5 127.5,-19.5 127.5,-0.5 71.5,-0.5"/>
<text text-anchor="middle" x="99.5" y="-7.5" font-family="Helvetica,sans-Serif" font-size="10.00">stddef.h</text>
</a>
</g>
</g>
<!-- Node2&#45;&gt;Node4 -->
<g id="edge3" class="edge">
<title>Node2&#45;&gt;Node4</title>
<path fill="none" stroke="midnightblue" d="M99.5,-56.08C99.5,-49.01 99.5,-38.86 99.5,-29.99"/>
<polygon fill="midnightblue" stroke="midnightblue" points="103,-29.75 99.5,-19.75 96,-29.75 103,-29.75"/>
</g>
<!-- Node2&#45;&gt;Node5 -->
<g id="edge4" class="edge">
<title>Node2&#45;&gt;Node5</title>
<path fill="none" stroke="midnightblue" d="M111.87,-56.32C123.66,-48.06 141.63,-35.45 155.64,-25.63"/>
<polygon fill="midnightblue" stroke="midnightblue" points="157.98,-28.26 164.16,-19.65 153.96,-22.53 157.98,-28.26"/>
</g>
<!-- Node6&#45;&gt;Node2 -->
<g id="edge7" class="edge">
<title>Node6&#45;&gt;Node2</title>
<path fill="none" stroke="midnightblue" d="M140.41,-112.08C133.34,-104.3 122.91,-92.8 114.35,-83.37"/>
<polygon fill="midnightblue" stroke="midnightblue" points="116.75,-80.8 107.44,-75.75 111.57,-85.51 116.75,-80.8"/>
</g>
<!-- Node6&#45;&gt;Node5 -->
<g id="edge6" class="edge">
<title>Node6&#45;&gt;Node5</title>
<path fill="none" stroke="midnightblue" d="M150.7,-112.37C155.22,-94.62 165.64,-53.67 171.77,-29.6"/>
<polygon fill="midnightblue" stroke="midnightblue" points="175.24,-30.15 174.31,-19.59 168.45,-28.42 175.24,-30.15"/>
</g>
<!-- Node7&#45;&gt;Node6 -->
<g id="edge9" class="edge">
<title>Node7&#45;&gt;Node6</title>
<path fill="none" stroke="midnightblue" d="M166.03,-168.08C163.19,-160.77 159.07,-150.18 155.54,-141.1"/>
<polygon fill="midnightblue" stroke="midnightblue" points="158.79,-139.8 151.9,-131.75 152.27,-142.34 158.79,-139.8"/>
</g>
</g>
</svg>
