<?xml version="1.0" encoding="UTF-8" standalone="no"?>
<!DOCTYPE svg PUBLIC "-//W3C//DTD SVG 1.1//EN"
 "http://www.w3.org/Graphics/SVG/1.1/DTD/svg11.dtd">
<!-- Generated by graphviz version 2.43.0 (0)
 -->
<!-- Title: main Pages: 1 -->
<!--zoomable 427 -->
<svg id="main" version="1.1" xmlns="http://www.w3.org/2000/svg" xmlns:xlink="http://www.w3.org/1999/xlink" xml:space="preserve" onload="init(evt)">
<style type="text/css"><![CDATA[
.edge:hover path { stroke: red; }
.edge:hover polygon { stroke: red; fill: red; }
]]></style>
<script type="text/javascript"><![CDATA[
var edges = document.getElementsByTagName('g');
if (edges && edges.length) {
  for (var i=0;i<edges.length;i++) {
    if (edges[i].id.substr(0,4)=='edge') {
      edges[i].setAttribute('class','edge');
    }
  }
}
]]></script>
        <defs>
                <circle id="rim" cx="0" cy="0" r="7"/>
                <circle id="rim2" cx="0" cy="0" r="3.5"/>
                <g id="zoomPlus">
                        <use xlink:href="#rim" fill="#404040">
                                <set attributeName="fill" to="#808080" begin="zoomplus.mouseover" end="zoomplus.mouseout"/>
                        </use>
                        <path d="M-4,0h8M0,-4v8" fill="none" stroke="white" stroke-width="1.5" pointer-events="none"/>
                </g>
                <g id="zoomMin">
                        <use xlink:href="#rim" fill="#404040">
                                <set attributeName="fill" to="#808080" begin="zoomminus.mouseover" end="zoomminus.mouseout"/>
                        </use>
                        <path d="M-4,0h8" fill="none" stroke="white" stroke-width="1.5" pointer-events="none"/>
                </g>
                <g id="dirArrow">
                        <path fill="none" stroke="white" stroke-width="1.5" d="M0,-3.0v7 M-2.5,-0.5L0,-3.0L2.5,-0.5"/>
                </g>
               <g id="resetDef">
                       <use xlink:href="#rim2" fill="#404040">
                               <set attributeName="fill" to="#808080" begin="reset.mouseover" end="reset.mouseout"/>
                       </use>
               </g>
        </defs>

<script type="text/javascript">
var viewWidth = 559;
var viewHeight = 427;
var sectionId = 'dynsection-3';
</script>
<script xlink:href="svgpan.js"/>
<svg id="graph" class="graph">
<g id="viewport">
<title>main</title>
<polygon fill="white" stroke="transparent" points="-4,4 -4,-423 555,-423 555,4 -4,4"/>
<!-- Node1 -->
<g id="node1" class="node">
<title>Node1</title>
<g id="a_node1"><a xlink:title=" ">
<polygon fill="#bfbfbf" stroke="black" points="0,-114.5 0,-133.5 41,-133.5 41,-114.5 0,-114.5"/>
<text text-anchor="middle" x="20.5" y="-121.5" font-family="Helvetica,sans-Serif" font-size="10.00">main</text>
</a>
</g>
</g>
<!-- Node2 -->
<g id="node2" class="node">
<title>Node2</title>
<g id="a_node2"><a xlink:href="group__ktos__core.html#ga7aca2702c8fa0e02fd05461d4f5d23fe" target="_top" xlink:title="Emit a fatal&#45;error message and halt execution.">
<polygon fill="white" stroke="black" points="435,-304.5 435,-323.5 533,-323.5 533,-304.5 435,-304.5"/>
<text text-anchor="middle" x="484" y="-311.5" font-family="Helvetica,sans-Serif" font-size="10.00">ktos_Emergency</text>
</a>
</g>
</g>
<!-- Node1&#45;&gt;Node2 -->
<g id="edge1" class="edge">
<title>Node1&#45;&gt;Node2</title>
<path fill="none" stroke="midnightblue" d="M41.32,-122.66C108.01,-118.53 323.34,-108.21 381,-143 438.13,-177.47 467.1,-257.18 477.89,-294.31"/>
<polygon fill="midnightblue" stroke="midnightblue" points="474.63,-295.66 480.67,-304.37 481.38,-293.8 474.63,-295.66"/>
</g>
<!-- Node3 -->
<g id="node3" class="node">
<title>Node3</title>
<g id="a_node3"><a xlink:href="ktos_8c.html#a9f7bbd66bfb5333402db8b6c413cb114" target="_top" xlink:title=" ">
<polygon fill="white" stroke="black" points="92,-323.5 92,-342.5 172,-342.5 172,-323.5 92,-323.5"/>
<text text-anchor="middle" x="132" y="-330.5" font-family="Helvetica,sans-Serif" font-size="10.00">ktos_InitTask</text>
</a>
</g>
</g>
<!-- Node1&#45;&gt;Node3 -->
<g id="edge2" class="edge">
<title>Node1&#45;&gt;Node3</title>
<path fill="none" stroke="midnightblue" d="M26.49,-133.52C43.38,-165.76 98.59,-271.14 121.21,-314.31"/>
<polygon fill="midnightblue" stroke="midnightblue" points="118.24,-316.19 125.98,-323.42 124.44,-312.94 118.24,-316.19"/>
</g>
<!-- Node8 -->
<g id="node8" class="node">
<title>Node8</title>
<g id="a_node8"><a xlink:href="group__ktos__core.html#ga6580b57b65ece0e7bfcc48823db105f3" target="_top" xlink:title="Start the KTOS scheduler. Never returns.">
<polygon fill="white" stroke="black" points="94.5,-190.5 94.5,-209.5 169.5,-209.5 169.5,-190.5 94.5,-190.5"/>
<text text-anchor="middle" x="132" y="-197.5" font-family="Helvetica,sans-Serif" font-size="10.00">ktos_RunOS</text>
</a>
</g>
</g>
<!-- Node1&#45;&gt;Node8 -->
<g id="edge9" class="edge">
<title>Node1&#45;&gt;Node8</title>
<path fill="none" stroke="midnightblue" d="M35.37,-133.63C53.88,-146.47 86.88,-169.38 108.86,-184.63"/>
<polygon fill="midnightblue" stroke="midnightblue" points="107.03,-187.63 117.24,-190.45 111.02,-181.88 107.03,-187.63"/>
</g>
<!-- Node12 -->
<g id="node12" class="node">
<title>Node12</title>
<g id="a_node12"><a xlink:href="ktos_8c.html#abdccd1793b29f0ab71047c522a9fb262" target="_top" xlink:title=" ">
<polygon fill="white" stroke="black" points="88.5,-76.5 88.5,-95.5 175.5,-95.5 175.5,-76.5 88.5,-76.5"/>
<text text-anchor="middle" x="132" y="-83.5" font-family="Helvetica,sans-Serif" font-size="10.00">ktos_SendMsg</text>
</a>
</g>
</g>
<!-- Node1&#45;&gt;Node12 -->
<g id="edge14" class="edge">
<title>Node1&#45;&gt;Node12</title>
<path fill="none" stroke="midnightblue" d="M41.08,-117.21C55.71,-112.13 76.17,-105.03 93.87,-98.89"/>
<polygon fill="midnightblue" stroke="midnightblue" points="95.07,-102.17 103.37,-95.59 92.77,-95.56 95.07,-102.17"/>
</g>
<!-- Node15 -->
<g id="node15" class="node">
<title>Node15</title>
<g id="a_node15"><a xlink:href="ktos__multi_8c.html#a161041827d36e1daec9539403c87c20e" target="_top" xlink:title=" ">
<polygon fill="white" stroke="black" points="77,-19.5 77,-38.5 187,-38.5 187,-19.5 77,-19.5"/>
<text text-anchor="middle" x="132" y="-26.5" font-family="Helvetica,sans-Serif" font-size="10.00">ktos_TaskMainProc</text>
</a>
</g>
</g>
<!-- Node1&#45;&gt;Node15 -->
<g id="edge17" class="edge">
<title>Node1&#45;&gt;Node15</title>
<path fill="none" stroke="midnightblue" d="M30.03,-114.18C40.52,-102.37 59.13,-82.23 77,-67 86.48,-58.91 97.65,-50.84 107.36,-44.23"/>
<polygon fill="midnightblue" stroke="midnightblue" points="109.41,-47.08 115.78,-38.61 105.52,-41.25 109.41,-47.08"/>
</g>
<!-- Node3&#45;&gt;Node2 -->
<g id="edge7" class="edge">
<title>Node3&#45;&gt;Node2</title>
<path fill="none" stroke="midnightblue" d="M172.19,-335.22C221.16,-337.48 307.47,-339.79 381,-333 397.48,-331.48 415.27,-328.6 431.3,-325.54"/>
<polygon fill="midnightblue" stroke="midnightblue" points="432.43,-328.88 441.56,-323.51 431.07,-322.02 432.43,-328.88"/>
</g>
<!-- Node4 -->
<g id="node4" class="node">
<title>Node4</title>
<g id="a_node4"><a xlink:href="ktos_8c.html#a0472bc90096e9ce7acb6b8aebc9b127b" target="_top" xlink:title="Default exit handler called when a task function returns.">
<polygon fill="white" stroke="black" points="223,-380.5 223,-399.5 381,-399.5 381,-380.5 223,-380.5"/>
<text text-anchor="middle" x="302" y="-387.5" font-family="Helvetica,sans-Serif" font-size="10.00">ktos_DefaultTaskExitHandler</text>
</a>
</g>
</g>
<!-- Node3&#45;&gt;Node4 -->
<g id="edge3" class="edge">
<title>Node3&#45;&gt;Node4</title>
<path fill="none" stroke="midnightblue" d="M158.09,-342.6C176.07,-349.39 200.92,-358.56 223,-366 234.53,-369.88 247.09,-373.86 258.71,-377.43"/>
<polygon fill="midnightblue" stroke="midnightblue" points="258.03,-380.89 268.62,-380.46 260.08,-374.19 258.03,-380.89"/>
</g>
<!-- Node7 -->
<g id="node7" class="node">
<title>Node7</title>
<g id="a_node7"><a xlink:href="group__ktos__hal.html#ga8556e39382caea4984aaefd7813ba7b1" target="_top" xlink:title="Set up the initial stack frame for a new task.">
<polygon fill="white" stroke="black" points="238,-304.5 238,-323.5 366,-323.5 366,-304.5 238,-304.5"/>
<text text-anchor="middle" x="302" y="-311.5" font-family="Helvetica,sans-Serif" font-size="10.00">ktos_hal_InitTaskStack</text>
</a>
</g>
</g>
<!-- Node3&#45;&gt;Node7 -->
<g id="edge8" class="edge">
<title>Node3&#45;&gt;Node7</title>
<path fill="none" stroke="midnightblue" d="M172.39,-328.55C188.91,-326.68 208.68,-324.44 227.71,-322.29"/>
<polygon fill="midnightblue" stroke="midnightblue" points="228.32,-325.74 237.87,-321.14 227.54,-318.79 228.32,-325.74"/>
</g>
<!-- Node4&#45;&gt;Node2 -->
<g id="edge5" class="edge">
<title>Node4&#45;&gt;Node2</title>
<path fill="none" stroke="midnightblue" d="M338.79,-380.4C352.21,-376.44 367.47,-371.48 381,-366 407.88,-355.11 437.25,-339.74 457.54,-328.54"/>
<polygon fill="midnightblue" stroke="midnightblue" points="459.43,-331.49 466.45,-323.56 456.02,-325.38 459.43,-331.49"/>
</g>
<!-- Node5 -->
<g id="node5" class="node">
<title>Node5</title>
<g id="a_node5"><a xlink:href="group__ktos__core.html#ga77b699103f3ec266c0d79d849ead8c1c" target="_top" xlink:title="Printf&#45;style debug logging (active only when DEBUG == 1).">
<polygon fill="white" stroke="black" points="433.5,-361.5 433.5,-380.5 534.5,-380.5 534.5,-361.5 433.5,-361.5"/>
<text text-anchor="middle" x="484" y="-368.5" font-family="Helvetica,sans-Serif" font-size="10.00">ktos_DebugPrintf</text>
</a>
</g>
</g>
<!-- Node4&#45;&gt;Node5 -->
<g id="edge4" class="edge">
<title>Node4&#45;&gt;Node5</title>
<path fill="none" stroke="midnightblue" d="M381.17,-381.75C395.3,-380.26 409.84,-378.72 423.34,-377.3"/>
<polygon fill="midnightblue" stroke="midnightblue" points="423.86,-380.76 433.44,-376.23 423.13,-373.8 423.86,-380.76"/>
</g>
<!-- Node6 -->
<g id="node6" class="node">
<title>Node6</title>
<g id="a_node6"><a xlink:href="group__ktos__hal.html#ga5810bd4a4ed08259ec13bef908828d20" target="_top" xlink:title="Perform a cooperative context switch between two execution contexts.">
<polygon fill="white" stroke="black" points="417,-399.5 417,-418.5 551,-418.5 551,-399.5 417,-399.5"/>
<text text-anchor="middle" x="484" y="-406.5" font-family="Helvetica,sans-Serif" font-size="10.00">ktos_hal_ContextSwitch</text>
</a>
</g>
</g>
<!-- Node4&#45;&gt;Node6 -->
<g id="edge6" class="edge">
<title>Node4&#45;&gt;Node6</title>
<path fill="none" stroke="midnightblue" d="M381.17,-398.25C389.6,-399.14 398.17,-400.05 406.58,-400.93"/>
<polygon fill="midnightblue" stroke="midnightblue" points="406.43,-404.44 416.74,-402.01 407.16,-397.48 406.43,-404.44"/>
</g>
<!-- Node8&#45;&gt;Node2 -->
<g id="edge10" class="edge">
<title>Node8&#45;&gt;Node2</title>
<path fill="none" stroke="midnightblue" d="M145.05,-209.59C161.65,-222.32 192.9,-244.62 223,-257 241.53,-264.62 354.33,-288.09 425.13,-302.42"/>
<polygon fill="midnightblue" stroke="midnightblue" points="424.76,-305.92 435.26,-304.47 426.15,-299.06 424.76,-305.92"/>
</g>
<!-- Node9 -->
<g id="node9" class="node">
<title>Node9</title>
<g id="a_node9"><a xlink:href="group__ktos__hal.html#gae42df35bd10d7d6b296be9687d436a32" target="_top" xlink:title="Configure and start the 1 ms system tick timer.">
<polygon fill="white" stroke="black" points="230,-228.5 230,-247.5 374,-247.5 374,-228.5 230,-228.5"/>
<text text-anchor="middle" x="302" y="-235.5" font-family="Helvetica,sans-Serif" font-size="10.00">ktos_hal_InitSystemTimer</text>
</a>
</g>
</g>
<!-- Node8&#45;&gt;Node9 -->
<g id="edge11" class="edge">
<title>Node8&#45;&gt;Node9</title>
<path fill="none" stroke="midnightblue" d="M169.87,-208.34C193.06,-213.59 223.34,-220.43 248.96,-226.23"/>
<polygon fill="midnightblue" stroke="midnightblue" points="248.37,-229.68 258.89,-228.48 249.91,-222.86 248.37,-229.68"/>
</g>
<!-- Node10 -->
<g id="node10" class="node">
<title>Node10</title>
<g id="a_node10"><a xlink:href="group__ktos__hal.html#gada7d06870787ac11ce8ebc4df1fc9b4b" target="_top" xlink:title="Launch the KTOS scheduler and the first task. Never returns.">
<polygon fill="white" stroke="black" points="235,-190.5 235,-209.5 369,-209.5 369,-190.5 235,-190.5"/>
<text text-anchor="middle" x="302" y="-197.5" font-family="Helvetica,sans-Serif" font-size="10.00">ktos_hal_StartScheduler</text>
</a>
</g>
</g>
<!-- Node8&#45;&gt;Node10 -->
<g id="edge12" class="edge">
<title>Node8&#45;&gt;Node10</title>
<path fill="none" stroke="midnightblue" d="M169.87,-200C186,-200 205.55,-200 224.59,-200"/>
<polygon fill="midnightblue" stroke="midnightblue" points="224.78,-203.5 234.78,-200 224.78,-196.5 224.78,-203.5"/>
</g>
<!-- Node11 -->
<g id="node11" class="node">
<title>Node11</title>
<g id="a_node11"><a xlink:href="ktos_8c.html#a2a3876653c789ddcd5a9ccf968d98fe0" target="_top" xlink:title="1 ms system tick interrupt handler.">
<polygon fill="white" stroke="black" points="237.5,-152.5 237.5,-171.5 366.5,-171.5 366.5,-152.5 237.5,-152.5"/>
<text text-anchor="middle" x="302" y="-159.5" font-family="Helvetica,sans-Serif" font-size="10.00">ktos_timer_irq_handler</text>
</a>
</g>
</g>
<!-- Node8&#45;&gt;Node11 -->
<g id="edge13" class="edge">
<title>Node8&#45;&gt;Node11</title>
<path fill="none" stroke="midnightblue" d="M169.87,-191.66C193.06,-186.41 223.34,-179.57 248.96,-173.77"/>
<polygon fill="midnightblue" stroke="midnightblue" points="249.91,-177.14 258.89,-171.52 248.37,-170.32 249.91,-177.14"/>
</g>
<!-- Node13 -->
<g id="node13" class="node">
<title>Node13</title>
<g id="a_node13"><a xlink:href="group__ktos__hal.html#ga13869e4884f47a98d8c9b2d9902d5eda" target="_top" xlink:title="Disable all maskable interrupts.">
<polygon fill="white" stroke="black" points="228.5,-38.5 228.5,-57.5 375.5,-57.5 375.5,-38.5 228.5,-38.5"/>
<text text-anchor="middle" x="302" y="-45.5" font-family="Helvetica,sans-Serif" font-size="10.00">ktos_hal_DisableInterrupts</text>
</a>
</g>
</g>
<!-- Node12&#45;&gt;Node13 -->
<g id="edge15" class="edge">
<title>Node12&#45;&gt;Node13</title>
<path fill="none" stroke="midnightblue" d="M175.39,-76.41C197.76,-71.35 225.4,-65.1 249.05,-59.75"/>
<polygon fill="midnightblue" stroke="midnightblue" points="249.93,-63.14 258.91,-57.52 248.39,-56.31 249.93,-63.14"/>
</g>
<!-- Node14 -->
<g id="node14" class="node">
<title>Node14</title>
<g id="a_node14"><a xlink:href="group__ktos__hal.html#ga6741995a98c2dc4867a11717fa64efd8" target="_top" xlink:title="Re&#45;enable maskable interrupts.">
<polygon fill="white" stroke="black" points="230.5,-76.5 230.5,-95.5 373.5,-95.5 373.5,-76.5 230.5,-76.5"/>
<text text-anchor="middle" x="302" y="-83.5" font-family="Helvetica,sans-Serif" font-size="10.00">ktos_hal_EnableInterrupts</text>
</a>
</g>
</g>
<!-- Node12&#45;&gt;Node14 -->
<g id="edge16" class="edge">
<title>Node12&#45;&gt;Node14</title>
<path fill="none" stroke="midnightblue" d="M175.83,-86C189.39,-86 204.84,-86 220.16,-86"/>
<polygon fill="midnightblue" stroke="midnightblue" points="220.18,-89.5 230.18,-86 220.18,-82.5 220.18,-89.5"/>
</g>
<!-- Node16 -->
<g id="node16" class="node">
<title>Node16</title>
<g id="a_node16"><a xlink:href="group__ktos__core.html#gaa3d9ea3cbeb12c3ce81ce4ad1be4b3e0" target="_top" xlink:title="Optional platform&#45;level system initialisation hook.">
<polygon fill="white" stroke="black" points="264,-0.5 264,-19.5 340,-19.5 340,-0.5 264,-0.5"/>
<text text-anchor="middle" x="302" y="-7.5" font-family="Helvetica,sans-Serif" font-size="10.00">ktos_InitSys</text>
</a>
</g>
</g>
<!-- Node15&#45;&gt;Node16 -->
<g id="edge18" class="edge">
<title>Node15&#45;&gt;Node16</title>
<path fill="none" stroke="midnightblue" d="M187.08,-22.88C208.5,-20.46 232.9,-17.7 253.61,-15.36"/>
<polygon fill="midnightblue" stroke="midnightblue" points="254.22,-18.81 263.76,-14.21 253.43,-11.86 254.22,-18.81"/>
</g>
</g>
</svg>
        <g id="navigator" transform="translate(0 0)" fill="#404254">
                <rect fill="#f2f5e9" fill-opacity="0.5" stroke="#606060" stroke-width=".5" x="0" y="0" width="60" height="60"/>
                <use id="zoomplus" xlink:href="#zoomPlus" x="17" y="9" onmousedown="handleZoom(evt,'in')"/>
                <use id="zoomminus" xlink:href="#zoomMin" x="42" y="9" onmousedown="handleZoom(evt,'out')"/>
                <use id="reset" xlink:href="#resetDef" x="30" y="36" onmousedown="handleReset()"/>
                <g id="arrowUp" xlink:href="#dirArrow" transform="translate(30 24)" onmousedown="handlePan(0,-1)">
                  <use xlink:href="#rim" fill="#404040">
                        <set attributeName="fill" to="#808080" begin="arrowUp.mouseover" end="arrowUp.mouseout"/>
                  </use>
                  <path fill="none" stroke="white" stroke-width="1.5" d="M0,-3.0v7 M-2.5,-0.5L0,-3.0L2.5,-0.5"/>
                </g>
                <g id="arrowRight" xlink:href="#dirArrow" transform="rotate(90) translate(36 -43)" onmousedown="handlePan(1,0)">
                  <use xlink:href="#rim" fill="#404040">
                        <set attributeName="fill" to="#808080" begin="arrowRight.mouseover" end="arrowRight.mouseout"/>
                  </use>
                  <path fill="none" stroke="white" stroke-width="1.5" d="M0,-3.0v7 M-2.5,-0.5L0,-3.0L2.5,-0.5"/>
                </g>
                <g id="arrowDown" xlink:href="#dirArrow" transform="rotate(180) translate(-30 -48)" onmousedown="handlePan(0,1)">
                  <use xlink:href="#rim" fill="#404040">
                        <set attributeName="fill" to="#808080" begin="arrowDown.mouseover" end="arrowDown.mouseout"/>
                  </use>
                  <path fill="none" stroke="white" stroke-width="1.5" d="M0,-3.0v7 M-2.5,-0.5L0,-3.0L2.5,-0.5"/>
                </g>
                <g id="arrowLeft" xlink:href="#dirArrow" transform="rotate(270) translate(-36 17)" onmousedown="handlePan(-1,0)">
                  <use xlink:href="#rim" fill="#404040">
                        <set attributeName="fill" to="#808080" begin="arrowLeft.mouseover" end="arrowLeft.mouseout"/>
                  </use>
                  <path fill="none" stroke="white" stroke-width="1.5" d="M0,-3.0v7 M-2.5,-0.5L0,-3.0L2.5,-0.5"/>
                </g>
        </g>
        <svg viewBox="0 0 15 15" width="100%" height="30px" preserveAspectRatio="xMaxYMin meet">
         <g id="arrow_out" transform="scale(0.3 0.3)">
          <a xlink:href="ktos__multi_8c_ae66f6b31b5ad750f1fe042a706a4e3d4_cgraph_org.svg" target="_base">
           <rect id="button" ry="5" rx="5" y="6" x="6" height="38" width="38"
                fill="#f2f5e9" fill-opacity="0.5" stroke="#606060" stroke-width="1.0"/>
           <path id="arrow"
             d="M 11.500037,31.436501 C 11.940474,20.09759 22.043105,11.32322 32.158766,21.979434 L 37.068811,17.246167 C 37.068811,17.246167 37.088388,32 37.088388,32 L 22.160133,31.978069 C 22.160133,31.978069 26.997745,27.140456 26.997745,27.140456 C 18.528582,18.264221 13.291696,25.230495 11.500037,31.436501 z"
             style="fill:#404040;"/>
          </a>
         </g>
        </svg>
</svg>
