<?xml version="1.0" encoding="UTF-8" standalone="no"?>
<!DOCTYPE svg PUBLIC "-//W3C//DTD SVG 1.1//EN"
 "http://www.w3.org/Graphics/SVG/1.1/DTD/svg11.dtd">
<!-- Generated by graphviz version 2.43.0 (0)
 -->
<!-- Title: ktos_TASK Pages: 1 -->
<svg width="143pt" height="128pt"
 viewBox="0.00 0.00 143.00 128.00" xmlns="http://www.w3.org/2000/svg" xmlns:xlink="http://www.w3.org/1999/xlink">
<g id="graph0" class="graph" transform="scale(1 1) rotate(0) translate(4 124)">
<title>ktos_TASK</title>
<polygon fill="white" stroke="transparent" points="-4,4 -4,-124 139,-124 139,4 -4,4"/>
<!-- Node1 -->
<g id="node1" class="node">
<title>Node1</title>
<g id="a_node1"><a xlink:title="KTOS task control block (TCB).">
<polygon fill="#bfbfbf" stroke="black" points="0,-0.5 0,-19.5 68,-19.5 68,-0.5 0,-0.5"/>
<text text-anchor="middle" x="34" y="-7.5" font-family="Helvetica,sans-Serif" font-size="10.00">ktos_TASK</text>
</a>
</g>
</g>
<!-- Node1&#45;&gt;Node1 -->
<g id="edge2" class="edge">
<title>Node1&#45;&gt;Node1</title>
<path fill="none" stroke="#9a32cd" stroke-dasharray="5,2" d="M78.15,-17.84C82.92,-16.34 86,-13.72 86,-10 86,-4.04 78.13,-0.92 68.01,-0.65"/>
<polygon fill="#9a32cd" stroke="#9a32cd" points="77.38,-14.42 68.01,-19.35 78.42,-21.34 77.38,-14.42"/>
<text text-anchor="middle" x="110.5" y="-7.5" font-family="Helvetica,sans-Serif" font-size="10.00"> TaskNext</text>
</g>
<!-- Node2 -->
<g id="node2" class="node">
<title>Node2</title>
<g id="a_node2"><a xlink:href="structktos__MSG.html" target="_top" xlink:title="Represents a single message in a task&#39;s queue.">
<polygon fill="white" stroke="black" points="1.5,-100.5 1.5,-119.5 66.5,-119.5 66.5,-100.5 1.5,-100.5"/>
<text text-anchor="middle" x="34" y="-107.5" font-family="Helvetica,sans-Serif" font-size="10.00">ktos_MSG</text>
</a>
</g>
</g>
<!-- Node2&#45;&gt;Node1 -->
<g id="edge1" class="edge">
<title>Node2&#45;&gt;Node1</title>
<path fill="none" stroke="#9a32cd" stroke-dasharray="5,2" d="M34,-90.22C34,-68.95 34,-35.22 34,-19.54"/>
<polygon fill="#9a32cd" stroke="#9a32cd" points="30.5,-90.3 34,-100.3 37.5,-90.3 30.5,-90.3"/>
<text text-anchor="middle" x="70.5" y="-74" font-family="Helvetica,sans-Serif" font-size="10.00"> MsgQueueEnd</text>
<text text-anchor="middle" x="70.5" y="-63" font-family="Helvetica,sans-Serif" font-size="10.00">MsgQueueIn</text>
<text text-anchor="middle" x="70.5" y="-52" font-family="Helvetica,sans-Serif" font-size="10.00">MsgQueueOut</text>
<text text-anchor="middle" x="70.5" y="-41" font-family="Helvetica,sans-Serif" font-size="10.00">MsgQueue</text>
</g>
</g>
</svg>
